<svg width="34" height="34" viewBox="0 0 34 34" fill="none" xmlns="http://www.w3.org/2000/svg">
<g clip-path="url(#clip0_196_12392)">
<path d="M30.4716 26.6297C29.9679 27.7934 29.3717 28.8645 28.6809 29.8493C27.7393 31.1919 26.9683 32.1212 26.3741 32.6372C25.453 33.4843 24.4662 33.9182 23.4094 33.9427C22.6508 33.9427 21.7358 33.7269 20.6709 33.289C19.6024 32.8531 18.6205 32.6372 17.7227 32.6372C16.781 32.6372 15.7711 32.853 14.6909 33.289C13.6091 33.7268 12.7376 33.9551 12.0712 33.9777C11.0578 34.0209 10.0477 33.5747 9.03949 32.6372C8.39598 32.0759 7.59106 31.1137 6.62677 29.7506C5.59221 28.295 4.7417 26.6071 4.07528 24.6826C3.3617 22.604 3.00391 20.5912 3.00391 18.6426C3.00391 16.4104 3.48622 14.4853 4.45234 12.8719C5.21165 11.576 6.22174 10.5539 7.48587 9.80339C8.75 9.05293 10.1161 8.67054 11.5871 8.64608C12.392 8.64608 13.4476 8.89504 14.7592 9.38437C16.0673 9.87534 16.9071 10.1244 17.2753 10.1244C17.5507 10.1244 18.4837 9.83325 20.0653 9.25284C21.561 8.71458 22.8234 8.4917 23.8575 8.57953C26.6598 8.80572 28.7651 9.91034 30.1652 11.9005C27.659 13.4191 26.4193 15.546 26.4439 18.2745C26.4666 20.3997 27.2375 22.1683 28.7528 23.5725C29.4394 24.2243 30.2063 24.728 31.0595 25.0856C30.8745 25.6222 30.6792 26.1362 30.4716 26.6297H30.4716ZM24.0447 1.3392C24.0447 3.00498 23.4361 4.56029 22.2231 5.99987C20.7592 7.71125 18.9887 8.70014 17.0686 8.54414C17.0429 8.33471 17.03 8.12391 17.03 7.91292C17.03 6.31376 17.7261 4.60238 18.9623 3.20313C19.5796 2.49469 20.3645 1.90556 21.3164 1.43561C22.2663 0.972686 23.1648 0.716633 24.0097 0.672852C24.0344 0.895532 24.0447 1.11821 24.0447 1.33914L24.0447 1.3392Z" fill="#F9F9F9"/>
</g>
<defs>
<clipPath id="clip0_196_12392">
<rect width="33.3077" height="33.3077" fill="white" transform="translate(0.376953 0.672852)"/>
</clipPath>
</defs>
</svg>
