<svg width="100" height="100" viewBox="0 0 100 100" fill="none" xmlns="http://www.w3.org/2000/svg">
<rect width="100" height="100" rx="8" fill="#E8FBFF"/>
<path d="M61.2499 36.875H68.9299C69.3944 36.8755 69.8422 37.0483 70.1865 37.3601C70.5309 37.6718 70.7472 38.1003 70.7937 38.5625L71.9374 50H68.1649L67.2274 40.625H61.2499V46.25C61.2499 46.7473 61.0524 47.2242 60.7008 47.5758C60.3491 47.9275 59.8722 48.125 59.3749 48.125C58.8776 48.125 58.4007 47.9275 58.0491 47.5758C57.6975 47.2242 57.4999 46.7473 57.4999 46.25V40.625H42.4999V46.25C42.4999 46.7473 42.3024 47.2242 41.9508 47.5758C41.5991 47.9275 41.1222 48.125 40.6249 48.125C40.1276 48.125 39.6507 47.9275 39.2991 47.5758C38.9475 47.2242 38.7499 46.7473 38.7499 46.25V40.625H32.7687L29.7687 70.625H49.9999V74.375H27.6949C27.433 74.3747 27.1741 74.3196 26.9348 74.2132C26.6955 74.1068 26.4812 73.9514 26.3056 73.7571C26.13 73.5628 25.9971 73.3339 25.9154 73.0851C25.8337 72.8362 25.805 72.5731 25.8312 72.3125L29.2062 38.5625C29.2526 38.1003 29.469 37.6718 29.8133 37.3601C30.1576 37.0483 30.6054 36.8755 31.0699 36.875H38.7499V35.5663C38.7499 29.0638 43.7599 23.75 49.9999 23.75C56.2399 23.75 61.2499 29.0638 61.2499 35.5663V36.8787V36.875ZM57.4999 36.875V35.5663C57.4999 31.0888 54.1174 27.5 49.9999 27.5C45.8824 27.5 42.4999 31.0888 42.4999 35.5663V36.8787H57.4999V36.875ZM69.3012 65.225L64.9999 60.9275V74.375C64.9999 74.8723 64.8024 75.3492 64.4508 75.7008C64.0991 76.0525 63.6222 76.25 63.1249 76.25C62.6276 76.25 62.1507 76.0525 61.7991 75.7008C61.4475 75.3492 61.2499 74.8723 61.2499 74.375V60.9275L56.9524 65.225C56.7795 65.4041 56.5726 65.5469 56.3438 65.6452C56.115 65.7435 55.869 65.7952 55.6201 65.7973C55.3711 65.7995 55.1242 65.7521 54.8938 65.6578C54.6633 65.5635 54.454 65.4243 54.2779 65.2482C54.1019 65.0722 53.9627 64.8628 53.8684 64.6324C53.7741 64.402 53.7267 64.1551 53.7288 63.9061C53.731 63.6572 53.7827 63.4111 53.881 63.1824C53.9793 62.9536 54.1221 62.7467 54.3012 62.5737L61.8012 55.0737C62.1528 54.7222 62.6296 54.5248 63.1268 54.5248C63.624 54.5248 64.1008 54.7222 64.4524 55.0737L71.9524 62.5737C72.1315 62.7467 72.2743 62.9536 72.3726 63.1824C72.4709 63.4111 72.5226 63.6572 72.5248 63.9061C72.5269 64.1551 72.4795 64.402 72.3852 64.6324C72.2909 64.8628 72.1517 65.0722 71.9757 65.2482C71.7996 65.4243 71.5903 65.5635 71.3598 65.6578C71.1294 65.7521 70.8825 65.7995 70.6335 65.7973C70.3846 65.7952 70.1385 65.7435 69.9098 65.6452C69.681 65.5469 69.4741 65.4041 69.3012 65.225Z" fill="#08D0FC"/>
</svg>
