<svg width="100" height="101" viewBox="0 0 100 101" fill="none" xmlns="http://www.w3.org/2000/svg">
<rect y="0.691406" width="100" height="100" rx="8" fill="#FFE7E7"/>
<path d="M27.6875 35.5648C27.6875 35.5648 24.6641 35.8039 24.261 36.4836C23.8531 37.1633 23.8297 38.2086 23.8297 39.357C23.8297 40.5101 23.7828 43.1539 23.7828 43.1539L24.5047 44.7054C24.5047 44.7054 24.6406 64.482 24.6406 65.0961C24.6406 65.7054 24.6406 66.4508 25.5219 66.9242C26.4031 67.3976 48.8 78.2164 49.4985 78.507C50.5532 78.9429 51.0547 78.7789 51.0547 78.7789L75.9406 37.1586C75.9406 37.1586 75.861 36.0195 74.825 35.7476C74.2297 35.5976 27.6875 35.5648 27.6875 35.5648Z" fill="#F5B03E"/>
<path d="M50.7875 49.2476C50.4078 50.2929 50.5812 61.1023 50.6468 68.9632C50.7125 76.8195 50.4453 78.446 50.6468 78.7179C50.8484 78.9898 51.3968 78.7273 52.9484 78.0382C55.8312 76.7632 69.6781 69.9101 70.6953 69.3007C71.7125 68.6914 74.1968 67.4304 74.6046 66.7507C75.0125 66.071 75.2328 59.7476 75.3687 54.671C75.5046 49.5898 75.6406 45.5257 75.6406 45.5257L76.25 43.6976C76.25 43.6976 76.1187 38.757 76.0953 38.2132C76.0531 37.3132 75.9546 36.8492 75.725 36.9617C75.3968 37.1164 72.6593 39.3617 65.4125 42.8867C60.8609 45.0945 51.05 48.5257 50.7875 49.2476Z" fill="#E07F14"/>
<path d="M50.8532 25.9461C48.8235 25.8524 43.2688 29.0633 37.9157 30.8211C32.5626 32.5789 24.4813 36.1133 24.411 36.3195C24.3454 36.5211 27.6641 38.007 29.7829 39.0242C32.3001 40.2289 41.9094 44.7805 43.6672 45.5258C45.4297 46.2711 49.6297 48.0149 50.3047 47.9633C51.2516 47.8977 60.1954 44.3727 64.7329 42.207C69.2704 40.0414 74.9422 36.6852 75.0172 35.8695C75.0501 35.5039 66.6735 32.3774 62.4969 30.4883C54.4344 26.8367 52.3391 26.0164 50.8532 25.9461Z" fill="#FDD717"/>
<path d="M23.8063 44.0211C23.8766 44.9023 24.3594 45.2164 25.5875 45.7508C26.8157 46.2852 50.0329 58.3461 50.5672 58.3461C51.1016 58.3461 51.261 56.4336 50.675 56.4852C50.3563 56.5133 42.7297 52.8898 35.6047 49.2711C29.5579 46.2055 23.7688 43.1445 23.7688 43.1445L23.8063 44.0211Z" fill="#E37D14"/>
<path d="M76.2546 43.6555C76.2546 43.6555 51.4625 56.2649 51.2187 56.3868C50.975 56.5086 50.5859 56.4665 50.5859 56.4665L50.5671 58.3461C50.5671 58.3461 50.7968 58.3977 51.0546 58.318C51.2046 58.2711 75.5375 45.6758 75.6453 45.6383C75.7531 45.6008 76.2218 45.3196 76.3203 44.7243C76.4046 44.2461 76.2546 43.6555 76.2546 43.6555Z" fill="#BA5E0D"/>
<path d="M33.5282 66.3571L38.3797 73.5758L40.5032 74.3024C40.5032 74.3024 40.6766 66.4274 40.7469 60.5915C40.8454 52.0649 40.8079 44.2883 40.9297 43.8477C41.1313 43.1024 50.5672 40.0415 50.5672 40.0415C50.5672 40.0415 61.2266 43.3836 61.5641 44.129C61.7141 44.4571 61.5969 49.979 61.5641 56.4149C61.5219 64.543 61.536 73.9274 61.536 73.9274C61.536 73.9274 62.6375 73.9227 62.7688 73.5149C62.9047 73.1071 63.4485 69.9618 63.4485 69.9618L67.5829 42.404L69.6829 39.6946L66.7672 34.1446L54.8047 28.2571L50.6938 29.1805L46.2454 28.5008L32.136 38.6399L33.7813 41.9774L37.8172 44.0352L33.5282 66.3571Z" fill="#AF0F1B"/>
<path d="M62.7876 43.843C62.5297 44.4102 62.6797 73.6367 62.6797 73.6367C62.6797 73.6367 63.9688 72.9242 65.6282 72.1274C67.2782 71.3352 68.4641 70.843 68.5672 70.4305C68.6704 70.018 68.8532 41.1149 68.8532 41.1149L62.7876 43.843Z" fill="#DC0D28"/>
<path d="M39.3829 43.2383C39.5375 43.407 39.2844 73.7352 38.9704 73.8055C38.7219 73.8664 33.0735 71.3445 33.0735 71.0867C33.0735 70.8289 33.5282 41.8461 33.5282 41.8461C33.5282 41.8461 38.9235 42.7227 39.3829 43.2383ZM50.5766 27.3711C49.0157 27.3711 47.2907 27.8164 46.7891 29.1242C46.2875 30.432 46.175 32.3773 46.175 33.8305C46.175 35.2227 45.95 38.7852 50.2391 38.7289C54.5282 38.6727 54.6547 37.0836 54.7204 33.5773C54.7766 30.6523 54.3875 29.232 53.9985 28.6227C53.6516 28.0742 52.4985 27.3711 50.5766 27.3711Z" fill="#FF2A23"/>
<path d="M48.0968 34.6086C49.0718 34.6649 49.489 32.5227 50.239 31.3508C50.989 30.1836 51.7718 29.4008 51.4906 28.7915C51.2609 28.2852 49.2218 28.1211 48.1203 29.654C47.3468 30.7368 47.2109 34.5571 48.0968 34.6086Z" fill="#FCC9D2"/>
<path d="M54.3734 28.3883C54.3734 28.3883 55.7562 29.7946 56.1172 32.5508C56.4781 35.3071 56.0609 37.4493 56.0609 37.4493C56.0609 37.4493 62.9328 37.243 65.3047 37.6977C67.6437 38.1524 68.4593 39.1836 68.4593 39.9336C68.4593 40.6836 66.9218 41.2883 65.3609 41.1758C63.8 41.0633 62.7453 40.979 62.5484 41.3727C62.3515 41.7665 62.6328 42.3758 64.8031 42.5399C66.9734 42.7086 69.4812 42.3993 70.2593 39.6993C71.0375 36.9993 71.0656 32.3211 70.789 28.9508C70.5125 25.5805 69.9031 23.654 68.3937 22.9227C66.8047 22.1586 62.825 22.0321 59.0656 24.1461C55.3062 26.2602 54.3734 28.3883 54.3734 28.3883Z" fill="#FF2A23"/>
<path d="M62.1594 25.182C61.6719 24.5539 60.1016 24.5726 59.2625 25.5429C58.3719 26.5742 58.175 30.4976 59.3188 30.7226C60.6125 30.9757 60.3782 28.857 61.325 27.5492C62.2532 26.2695 62.6328 25.796 62.1594 25.182Z" fill="#FCC9D2"/>
<path d="M46.4282 28.5242C46.4282 28.5242 41.1641 22.3883 35.15 22.482C31.5313 22.5383 30.6125 24.6242 30.4157 25.4867C30.2188 26.3492 28.7188 34.9273 30.7204 39.5726C32.7219 44.218 36.875 43.0133 37.5266 42.8633C38.361 42.6664 40.1375 42.057 39.9688 41.4148C39.8 40.7726 33.8985 43.0836 33.8422 40.4398C33.786 37.7961 38.0188 37.5148 39.9688 37.4586C41.9188 37.4023 45.261 37.8476 45.261 37.8476C45.261 37.8476 44.675 34.6461 45.0641 32.3633C45.4532 30.0805 46.4282 28.5242 46.4282 28.5242Z" fill="#FF2A23"/>
<path d="M33.5376 24.7086C32.7876 25.4867 32.4782 29.9726 32.9516 32.1992C33.4251 34.4258 33.8422 35.3726 34.8172 35.1804C35.6329 35.0164 36.1251 30.6476 36.5141 29.1101C36.9313 27.4695 37.9626 25.7258 37.5454 24.9617C36.9079 23.7898 34.3204 23.8976 33.5376 24.7086Z" fill="#FCC9D2"/>
</svg>
