<svg width="100" height="100" viewBox="0 0 100 100" fill="none" xmlns="http://www.w3.org/2000/svg">
<rect width="100" height="100" rx="8" fill="#E3FFF0"/>
<path d="M44.6798 25.202L43.8594 24.6875C42.254 23.7032 40.2501 23.1313 38.5274 23.668C36.6758 24.2446 35.1993 25.6707 34.4258 27.8129L33.3243 27.2457C31.4258 26.2684 30.4321 26.2532 29.6083 26.6235C28.9508 26.9176 28.2653 27.6254 27.4883 28.659L37.1446 36.125C38.6563 36.6172 40.8712 36.6055 43.086 36.0313C45.3126 35.4571 47.5274 34.3321 49.1446 32.8203L52.7891 23.8086C49.5782 21.2715 46.6485 22.741 44.6798 25.202ZM50.9024 34.168C48.9102 36.1836 45.9454 37.543 43.6368 38.1524C42.8282 38.3633 42.0196 38.5157 41.2344 38.5977C40.8008 39.3125 40.4376 40.0391 40.1563 40.7657C40.7188 43.625 41.7735 45.9688 43.3555 47.8907L41.668 49.2969C40.6954 48.125 39.8282 46.8594 39.1719 45.4532C39.0665 48.1719 39.6758 50.9844 40.6719 53.9141L38.5977 54.6172C36.7696 49.2735 36.1485 43.8008 38.7149 38.6446C37.8477 38.5742 37.0274 38.4102 36.2657 38.1407L36.2305 38.1289C35.7266 38.6094 35.2462 39.1133 34.7891 39.6407C31.0895 43.9297 29.0516 49.6367 30.118 54.0781C30.6887 56.4571 31.7118 58.7071 33.1837 60.6289C35.3399 60.5821 37.379 60.6289 39.2305 61.3321C40.1094 61.2383 41.0118 61.1797 41.9493 61.1797C45.2891 61.1797 48.3126 61.8008 50.5977 62.8789C51.4883 63.3008 52.2969 63.8047 52.9415 64.3789C52.9415 63.7578 53.0352 63.0899 53.2227 62.5977C52.1798 61.6133 51.5235 60.418 51.5235 59.0586C51.5235 57.1719 52.7774 55.6133 54.5938 54.4883C54.5938 53.9492 54.6993 53.4336 54.8868 52.9414C53.7032 51.9219 52.9415 50.6563 52.9415 49.1797C52.9415 48.2539 53.2462 47.4102 53.7618 46.6485C53.2462 45.8985 52.9415 45.0547 52.9415 44.1289C52.9415 43.6719 53.0118 43.25 53.1407 42.8399C52.004 41.8321 51.2891 40.5899 51.2891 39.1602C51.2891 37.7422 51.9923 36.5117 53.1173 35.5157C52.4258 34.9766 51.6876 34.5196 50.9024 34.168ZM63.9571 34.4375C60.9102 34.4375 58.1563 35.0821 56.2696 36.0313C54.3712 36.9805 53.4805 38.1524 53.4805 39.1602C53.4805 40.1797 54.3712 41.3516 56.2696 42.3008C58.1563 43.25 60.9102 43.8946 63.9571 43.8946C65.2813 43.8946 66.5352 43.7657 67.6954 43.5547V41.5625C69.3243 41.3164 70.6719 40.8711 71.5391 40.2969V42.3594C73.004 41.9375 74.4102 40.3789 74.4454 39.1602C74.4454 38.1524 73.5548 36.9805 71.6563 36.0313C69.7579 35.0821 67.0157 34.4375 63.9571 34.4375ZM75.2657 42.3711C74.879 42.7813 74.4219 43.168 73.9063 43.5196L73.9298 46.918C75.4063 46.0391 76.0977 45.0196 76.0977 44.1289C76.0977 43.5664 75.8282 42.9571 75.2657 42.3711ZM55.1329 44.1758C55.168 45.1836 56.0587 46.3203 57.9219 47.2578C59.8204 48.2188 62.5626 48.8516 65.6212 48.8516C67.5313 48.8516 69.3243 48.5938 70.8594 48.1719L70.9415 44.9844C68.9258 45.6875 66.5352 46.0742 63.9571 46.0742C60.6173 46.0742 57.5821 45.4063 55.2852 44.2578C55.2266 44.2344 55.1798 44.1992 55.1329 44.1758ZM55.3673 48.2539C55.2032 48.5703 55.1329 48.8867 55.1329 49.1797C55.1329 50.1992 56.0235 51.3711 57.9219 52.3203C59.8204 53.2696 62.5626 53.9024 65.6212 53.9024C67.168 53.9024 68.6329 53.75 69.9571 53.4571V50.6446C68.5977 50.9024 67.1446 51.0313 65.6212 51.0313C62.2696 51.0313 59.2344 50.375 56.9376 49.2149C56.3633 48.9336 55.836 48.6055 55.3673 48.2539ZM75.8633 48.2539C75.1485 48.7578 74.5274 49.1328 73.8008 49.4492V52.0625C75.3594 51.1602 76.0977 50.1055 76.0977 49.1797C76.0977 48.8867 76.0274 48.5703 75.8633 48.2539ZM76.7423 52.5664C76.5079 52.8008 76.2501 53.0235 75.9688 53.2461V57.043C77.1758 56.2227 77.7618 55.3203 77.7618 54.5C77.7618 53.8789 77.4219 53.211 76.7423 52.5664ZM56.8087 54.2071C56.7969 54.3125 56.7852 54.4063 56.7852 54.5C56.7852 55.5196 57.6758 56.6797 59.5743 57.6289C61.4727 58.5899 64.2266 59.2227 67.2735 59.2227C69.0196 59.2227 70.6837 59.0117 72.1251 58.6602V55.1563C70.2149 55.7657 68.0001 56.0938 65.6212 56.0938C62.2696 56.0938 59.2344 55.4258 56.9376 54.2774C56.8907 54.2539 56.8555 54.2305 56.8087 54.2071ZM55.2149 56.7149C54.1954 57.4766 53.7149 58.3086 53.7149 59.0586C53.7149 60.0782 54.6055 61.2383 56.504 62.1992C58.4024 63.1485 61.1446 63.7813 64.2032 63.7813C65.3165 63.7813 66.3946 63.6992 67.4024 63.5469V61.4141H67.2735C63.9219 61.4141 60.8868 60.7461 58.5899 59.586C57.1251 58.8594 55.9063 57.8867 55.2149 56.7149ZM74.2579 60.3008C73.3321 60.6289 72.3243 60.8985 71.2462 61.0742V62.4922C71.4688 62.3985 71.6915 62.3047 71.9024 62.1992C73.0508 61.6133 73.8243 60.9571 74.2579 60.3008ZM75.336 62.4336C74.8907 62.8789 74.3751 63.2774 73.8008 63.6407V66.9922C75.3594 66.1016 76.0977 65.0469 76.0977 64.1211C76.0977 63.5821 75.8516 62.9961 75.336 62.4336ZM34.4727 62.7617C33.2774 62.7735 31.9883 62.9258 30.6524 63.2422C27.9794 63.8633 25.6813 65 24.1813 66.2539C22.6813 67.4961 22.0954 68.7617 22.2712 69.6641C22.4469 70.5664 23.3727 71.3985 25.1774 71.8789C26.9762 72.3477 29.4923 72.3711 32.1641 71.75C33.2423 71.4922 34.2501 71.1641 35.1758 70.7774V68.3516C36.8868 67.5899 38.1641 66.6758 38.7383 65.7852V68.6446C40.1563 67.4258 40.7071 66.2071 40.543 65.3164C40.379 64.4141 39.4415 63.5821 37.6368 63.1133C36.7344 62.8789 35.6563 62.75 34.4727 62.7617ZM42.043 63.3711C42.3594 63.8282 42.5821 64.3438 42.6993 64.918C42.8282 65.6211 42.7696 66.3008 42.5587 66.9688C43.7188 67.2735 44.7735 67.6836 45.6876 68.1992C46.2032 68.4805 46.6837 68.8203 47.1055 69.1719C48.1602 68.9258 49.0508 68.5742 49.6837 68.1524V70.5664C51.5704 69.6758 52.4376 68.586 52.4376 67.7188C52.4376 66.8399 51.5704 65.75 49.6719 64.8594C47.7852 63.9805 45.0665 63.3828 42.043 63.3711ZM55.1446 63.9571C55.1329 64.0039 55.1329 64.0625 55.1329 64.1211C55.1329 65.1407 56.0235 66.3008 57.9219 67.2617C59.8204 68.211 62.5626 68.8438 65.6212 68.8438C67.168 68.8438 68.6329 68.6797 69.9571 68.3985V65.2461C68.2227 65.7149 66.2657 65.9727 64.2032 65.9727C60.8516 65.9727 57.8165 65.3047 55.5196 64.1563C55.3907 64.086 55.2618 64.0157 55.1446 63.9571ZM55.4727 68.3282C55.2383 68.7149 55.1329 69.0899 55.1329 69.4532C55.1329 70.4727 56.0235 71.6328 57.9219 72.5938C59.8204 73.543 62.5626 74.1758 65.6212 74.1758C67.168 74.1758 68.6329 74.0117 69.9571 73.7305V70.6367C68.5977 70.8946 67.1446 71.0352 65.6212 71.0352C62.2696 71.0352 59.2344 70.3672 56.9376 69.2071C56.4102 68.9492 55.918 68.6563 55.4727 68.3282ZM75.7579 68.3282C75.0782 68.7852 74.4805 69.1485 73.8008 69.4414V72.3242C75.3594 71.4336 76.0977 70.3789 76.0977 69.4532C76.0977 69.0899 75.9923 68.7149 75.7579 68.3282ZM41.4688 68.961C41.0587 69.4766 40.5782 69.9688 40.0391 70.4141C38.211 71.9492 35.6329 73.1914 32.6563 73.8828C31.5946 74.1289 30.5399 74.2813 29.5274 74.3633C29.9024 74.9844 30.5622 75.5938 31.5278 76.1328C33.1251 77.0352 35.4688 77.6446 38.0704 77.6446C39.254 77.6446 40.379 77.5157 41.4102 77.293V74.8555C43.0274 74.6094 44.3868 74.1641 45.254 73.5899V75.7461C46.4258 74.9258 46.9883 74 46.9883 73.1211C46.9883 72.1016 46.2266 71.0117 44.6212 70.1094C43.754 69.6289 42.6758 69.2305 41.4688 68.961Z" fill="#0FA958"/>
</svg>
