<svg width="100" height="101" viewBox="0 0 100 101" fill="none" xmlns="http://www.w3.org/2000/svg">
<rect y="0.691406" width="100" height="100" rx="8" fill="#F4F8FF"/>
<g clip-path="url(#clip0_474_631)">
<path d="M30.9922 34.1211C30.4414 34.25 30.793 34.2266 30.3359 34.2852C28.3789 34.707 29.832 35.082 30.9922 34.1211ZM65.4102 34.9062C65.5508 34.8125 66.043 34.332 64.5078 33.8633C64.6016 34.3438 64.1914 34.2969 64.1914 34.5664C65.3281 35.5977 65.7969 37.3906 67.25 37.7656C67.5312 36.4766 65.9609 35.8438 65.4102 34.9062ZM29.9492 33.7461C30.125 34.7891 30.9102 32.6445 30.9219 31.8828C30.6172 32.0586 30.3125 32.2344 29.9961 32.375C30.7344 32.75 30.0898 33.1484 29.293 33.7461C27.6758 35.7617 30.8047 32.1758 29.9492 33.7461ZM50 20.6914C33.4297 20.6914 20 34.1211 20 50.6914C20 67.25 33.4297 80.6914 50 80.6914C66.5703 80.6914 80 67.25 80 50.6914C80 34.1211 66.5703 20.6914 50 20.6914ZM50.7969 30.7461L50.9375 30.793C50.375 31.5195 53.8672 33.6406 51.3594 33.8164C49.0156 34.4844 52.3438 33.207 50.5273 33.4297C51.4883 32.0938 49.7656 32.0703 50.7969 30.7461ZM36.5703 32.668C35.7266 31.9648 33.0781 33.6289 34.0039 33.2305C36.3008 32.3281 34.1562 33.3242 34.6953 34.4023C34.2031 35.4219 34.5312 33.3945 33.3125 34.6016C32.4336 34.8008 30.2773 36.793 30.5469 36.1836C30.4766 37.1328 27.9805 38.2578 27.6406 39.8398C26.8203 42.0312 27.4414 39.7578 27.2891 38.9023C26.1172 37.4141 23.9844 41.4219 24.6172 43.0039C25.6836 41.1289 25.6016 42.8047 24.8281 43.6367C25.6133 45.0781 24.1133 46.9531 25.6016 48.0195C26.2578 48.1719 27.5703 45.8164 26.9961 48.2656C27.3945 46.1445 28.0977 48.7695 29.2344 48.1836C29.3047 49.2969 29.9961 48.7812 30.1484 50.1289C32.0469 49.9883 33.7812 53.1992 31.5195 53.8086C31.8594 53.7148 32.5273 54.3125 33.3008 53.8555C34.6133 54.8984 38.0703 55.0273 38.1641 57.6055C35.7852 58.7422 37.5781 61.8594 35.5156 62.9727C33.1484 62.6211 34.707 65.8906 33.7109 65.5156C34.1094 67.8711 31.3203 65.2109 32.3984 66.5117C34.3789 67.7305 31.5312 67.4844 32.4219 68.375C31.4258 68.1641 33.043 70.2266 33.3125 70.9883C34.7422 73.3086 32.082 70.4727 31.2969 69.6992C30.5469 68.1992 28.7773 65.3281 28.2852 62.9727C28.0039 59.5508 25.3555 57.2539 24.7461 53.9141C24.1367 52.0508 26.4219 49.0625 25.1914 48.0195C24.125 47.1875 24.5586 44.3398 23.9258 42.8398C25.5078 35.9844 30.5352 30.207 36.5703 26.7852C35.9492 27.2422 40.1211 25.6016 39.6406 26C39.5117 26.293 42.0781 24.8867 43.625 24.6758C43.4609 24.6992 39.6055 26.082 40.6719 25.8945C39.0195 26.7031 40.5078 26.2461 41.3281 25.8359C39.6875 27.043 38.4219 26.7031 36.5586 27.7695C34.6836 28.2617 35.0703 30.207 33.7344 31.1797C34.5195 31.3203 36.4883 29.1523 37.6367 28.3906C40.2734 27.1133 36.3008 30.7109 38.8086 29.1641C37.9648 29.9492 38.1406 31.2031 37.625 31.5547C37.3672 31.4844 38.6445 32.1641 36.5703 32.668ZM40.6719 27.2773C40.4023 27.6406 40.0273 28.4258 39.8047 27.9453C39.5 28.0977 39.3828 28.7539 38.8086 28.2266C39.1484 27.9805 39.5 27.3945 38.832 27.7578C39.1367 27.4297 41.8555 26.5039 41.7031 26.1523C42.1836 25.8477 42.1367 25.6953 41.5859 25.8828C41.3047 25.7891 42.2539 24.9922 43.5195 24.8867C43.6953 24.8867 43.7656 25.0039 43.4492 24.9688C41.5391 25.5547 42.3594 25.3906 43.6484 24.9688C43.1562 25.25 42.8164 25.332 42.7344 25.4609C44.0234 24.9922 42.6641 25.8008 42.957 25.7422C42.5938 25.9297 43.0156 25.9883 42.3125 26.2578C42.4414 26.1523 41.1641 27.0195 41.9258 26.7617C41.1875 27.4648 40.8594 27.4766 40.6719 27.2773ZM41.7969 28.9531C41.8203 27.8281 43.4375 27.1133 43.2383 27.0547C45.2305 26.1172 42.5469 27.0898 44.1172 26.2461C44.7031 26.1875 45.9453 24.3125 47.668 24.1953C49.5664 23.6211 48.6875 24.2305 50.0937 23.6914L49.8125 23.9258C49.5664 23.9609 49.8711 24.3945 48.9805 25.0508C48.8867 26.0703 47.2812 25.6016 48.0781 26.6914C47.5625 25.9531 46.7891 26.668 47.7617 26.7383C46.7188 27.5352 44.293 27.6758 43.1328 29C42.3828 30.0781 41.6914 29.7383 41.7969 28.9531ZM50.1289 32.7031C49.332 34.625 48.5586 32.4219 49.9648 32.0703C50.3164 32.2578 50.457 32.3164 50.1289 32.7031ZM47.1289 28.8594C46.8945 27.9922 47.082 28.4492 48.4766 28.0391C49.4375 28.7305 47.6211 29.1875 47.1289 28.8594ZM68.9492 63.2539C67.8477 61.3555 70.2852 59.5977 71.1055 58.0039C71 59.8672 70.7656 61.707 68.9492 63.2539ZM73.0977 41.5625C71.9023 41.6562 70.8242 41.9375 69.7461 41.2578C67.2617 38.5391 70.2031 44.3281 71.0234 41.9609C73.9766 43.0859 70.9766 47.9375 69.1133 47.4336C68.0703 45.1836 66.7812 42.7109 64.5078 41.6094C66.2539 43.543 67.1211 45.9219 68.9961 47.668C69.125 50.1055 71.5977 46.7773 71.4453 48.6641C71.6797 51.9102 67.7773 53.8555 68.457 57.1133C69.9102 60.0781 65.6562 60.6172 66.1367 63.2773C64.4258 65.1875 62.5977 67.7656 59.5273 67.3555C59.5273 65.7383 58.707 64.3672 58.5195 62.7031C56.8555 60.5938 60.2773 58.332 58.1562 56.1289C55.707 55.5781 58.6602 52.2031 56.1406 52.5195C54.6289 51.0078 52.4141 52.4727 50.2461 52.4844C47.5273 52.7422 44.7266 49.1445 45.9336 46.6016C44.9727 43.9531 48.9805 43.1797 49.0859 40.8477C51.0078 39.2422 53.7383 39.4414 56.3398 39.0664C56.1523 40.9297 58.1211 40.9414 59.6094 41.5625C60.4414 39.5469 63.0312 41.8906 64.8008 40.6133C65.4102 37.6367 63.0781 39.4297 61.7422 38.4805C60.125 36.1133 65.1992 37.2617 64.6719 36.0195C62.7031 36.0078 63.8164 33.5938 62.4219 34.9414C63.6758 35.1641 62.1992 36.1484 62.2344 35.0234C60.3359 34.4727 62.1641 37.1797 61.2031 37.4375C59.7383 36.8281 60.4297 38.1289 60.582 38.3281C59.9492 39.6992 59.1758 36.3125 57.3828 36.4063C55.6016 34.7773 56.6797 37.1445 58.2266 37.5312C57.8984 37.625 58.4141 38.9727 58.0039 38.3984C56.7266 36.6406 54.3008 35.4688 52.8594 37.625C52.707 39.6406 48.6055 40.2148 49.2617 37.8594C48.3008 35.4219 52.2383 37.7891 51.875 35.8438C49.3438 34.168 52.5664 34.707 53.4219 33.1367C55.3672 33.1953 53.5039 31.543 54.418 31.0625C54.3242 32.8555 55.9062 32.5156 57.1602 32.1758C56.8555 31.1445 57.9102 31.1797 57.2656 30.3242C60.1719 29.1641 55.0508 30.8633 56.082 28.3203C54.8281 27.4531 55.5547 30.2305 56.082 30.5234C56.1172 31.3789 55.3906 32.4336 54.3945 30.6406C52.9414 31.5898 53.0938 29.6797 53 29.8789C52.8359 29.1406 54.1016 29.1055 54.1133 27.8164C54.0078 26.9961 54.0312 26.5625 54.6172 26.5156C54.6641 26.6328 57.0195 26.668 57.8516 27.6406C55.5781 27.1836 57.5117 28.0156 58.5312 28.4844C57.4414 27.6289 58.9648 28.4844 58.0742 27.5117C58.4258 27.582 57.1016 26.1758 58.4609 27.4062C57.7227 26.5273 59.9023 26.7852 58.6133 26.1289C60.5 26.6562 59.3867 26.1758 58.2734 25.6953C55.2031 23.8672 63.6992 28.168 60.2305 26.2578C62.4453 26.7383 55.4961 24.5469 58.6602 25.5078C57.4531 24.9805 58.625 25.2734 59.7148 25.6133C57.7578 25.0039 54.8281 23.8672 54.9453 23.8203C55.625 23.8672 56.293 24.0195 56.9375 24.207C58.9414 24.8047 56.3633 24.0664 56.9141 24.0781C63.8047 25.8477 69.8398 30.4648 73.5078 36.5C74.3633 37.4023 76.6953 43.3672 75.4766 40.7188C76.0273 42.8281 76.1094 45.1016 76.4023 47.2578C75.793 46.5781 75.1133 44.0703 74.5273 42.6758C74.2812 43.2148 74 41.9141 73.0977 41.5625Z" fill="#699BF7"/>
</g>
<defs>
<clipPath id="clip0_474_631">
<rect width="60" height="60" fill="white" transform="translate(20 20.6914)"/>
</clipPath>
</defs>
</svg>
