<svg width="100" height="100" viewBox="0 0 100 100" fill="none" xmlns="http://www.w3.org/2000/svg">
<rect width="100" height="100" rx="8" fill="#FDF2FF"/>
<g clip-path="url(#clip0_586_618)">
<path d="M28.055 20.525C24.405 20.525 22.65 23.3425 22.65 26.2425V45.95C21.325 44.695 19.91 45.575 20.005 46.6875C20.1 47.785 21.48 50.5525 23.595 52.98C25.7025 55.4 28.405 57.42 30.945 58.65C30.0488 61.5615 29.6342 64.5998 29.7175 67.645C29.9425 70.385 30.6625 72.52 31.975 74.52C34.27 78.0375 37.775 79.4825 41.16 79.4825C44.1825 79.4825 47.395 78.075 47.905 73.55V61.815C51.175 63.195 56.58 62.7225 59.08 60.84C59.555 60.49 59.895 60.3225 60.12 60.5575C60.3575 60.7825 60.385 60.9725 59.8375 61.655C57.8775 64.118 55.1446 65.8487 52.08 66.5675L52.1 73.3675C52.1559 75.0136 52.8512 76.573 54.0382 77.7147C55.2253 78.8565 56.8105 79.4906 58.4575 79.4825C62.5575 79.52 64.6575 78.0925 66.3275 76.5725C67.9075 75.155 69.825 72.1875 70.2225 68.465C70.4924 65.1506 70.1067 61.8154 69.0875 58.65C71.8662 57.2202 74.3631 55.2992 76.4575 52.98C78.0325 51.25 80 47.9625 80 46.6875C80 45.4125 78.61 44.7325 77.41 45.9325V26.2425C77.41 24.1825 76.21 20.5175 72.0725 20.5175L28.055 20.525ZM29.1125 23.9H71.025C72.915 23.9 73.95 24.6 73.95 26.96V49.22C71.3119 51.1475 68.2747 52.458 65.0625 53.055C61.0475 53.935 57.7125 53.2725 55.8975 53.425C54.1025 53.575 52.3275 54.7475 52.6575 57.9C51.43 57.515 49.5675 56.1925 48.4525 55.1075C47.3575 54.0375 46.2775 53.33 44.6175 53.3775C42.085 53.4525 40.46 53.6325 38.1925 53.4025C33.8306 53.0382 29.6498 51.4949 26.0975 48.9375V26.95C26.0975 24.775 27.0425 23.9 29.1125 23.9ZM40.355 36.37C39.3607 36.3518 38.3728 36.532 37.4489 36.8999C36.525 37.2679 35.6837 37.8162 34.9741 38.5129C34.2645 39.2097 33.7009 40.0408 33.3162 40.9578C32.9314 41.8748 32.7332 42.8593 32.7332 43.8538C32.7332 44.8482 32.9314 45.8327 33.3162 46.7497C33.7009 47.6667 34.2645 48.4979 34.9741 49.1946C35.6837 49.8913 36.525 50.4397 37.4489 50.8076C38.3728 51.1756 39.3607 51.3557 40.355 51.3375C42.2975 51.276 44.1399 50.4611 45.4922 49.0653C46.8445 47.6695 47.6007 45.8022 47.6007 43.8588C47.6007 41.9153 46.8445 40.0481 45.4922 38.6523C44.1399 37.2564 42.2975 36.4415 40.355 36.38V36.37ZM59.63 36.37C58.6357 36.3518 57.6478 36.532 56.7239 36.8999C55.8 37.2679 54.9587 37.8162 54.2491 38.5129C53.5395 39.2097 52.9759 40.0408 52.5912 40.9578C52.2064 41.8748 52.0082 42.8593 52.0082 43.8538C52.0082 44.8482 52.2064 45.8327 52.5912 46.7497C52.9759 47.6667 53.5395 48.4979 54.2491 49.1946C54.9587 49.8913 55.8 50.4397 56.7239 50.8076C57.6478 51.1756 58.6357 51.3557 59.63 51.3375C61.5725 51.276 63.4149 50.4611 64.7672 49.0653C66.1195 47.6695 66.8757 45.8022 66.8757 43.8588C66.8757 41.9153 66.1195 40.0481 64.7672 38.6523C63.4149 37.2564 61.5725 36.4415 59.63 36.38V36.37Z" fill="#D60AF8"/>
</g>
<defs>
<clipPath id="clip0_586_618">
<rect width="60" height="60" fill="white" transform="translate(20 20)"/>
</clipPath>
</defs>
</svg>
