<svg width="101" height="100" viewBox="0 0 101 100" fill="none" xmlns="http://www.w3.org/2000/svg">
<rect x="0.162842" width="100" height="100" rx="8" fill="#F3F7FF"/>
<g clip-path="url(#clip0_493_643)">
<path d="M62.8771 34.8571V69.1429C62.8771 71.4161 61.9741 73.5963 60.3666 75.2038C58.7592 76.8112 56.579 77.7143 54.3057 77.7143H22.1628C24.4361 77.7143 26.6163 76.8112 28.2238 75.2038C29.8312 73.5963 30.7343 71.4161 30.7343 69.1429V30.5714C30.7343 28.2981 31.6373 26.118 33.2448 24.5105C34.8522 22.9031 37.0324 22 39.3057 22H70.3771" stroke="#699BF7" stroke-width="5" stroke-linecap="round" stroke-linejoin="round"/>
<path d="M45.7342 37H52.1628M41.4485 49.8571H52.1628M41.4485 62.7143H52.1628M70.3771 22C72.3662 22 74.2738 22.7902 75.6804 24.1967C77.0869 25.6032 77.8771 27.5109 77.8771 29.5V32.7143C77.8771 33.2826 77.6513 33.8277 77.2494 34.2295C76.8476 34.6314 76.3025 34.8571 75.7342 34.8571H62.8771V29.5C62.8771 27.5109 63.6672 25.6032 65.0738 24.1967C66.4803 22.7902 68.3879 22 70.3771 22Z" stroke="#699BF7" stroke-width="5" stroke-linecap="round" stroke-linejoin="round"/>
</g>
<defs>
<clipPath id="clip0_493_643">
<rect width="60" height="60" fill="white" transform="translate(20.1628 20)"/>
</clipPath>
</defs>
</svg>
