<svg width="100" height="100" viewBox="0 0 100 100" fill="none" xmlns="http://www.w3.org/2000/svg">
<rect width="100" height="100" rx="8" fill="#EEEEFF"/>
<g clip-path="url(#clip0_586_603)">
<path d="M50 77.8571V55.3571C50 53.9363 50.5644 52.5737 51.5691 51.5691C52.5737 50.5644 53.9363 50 55.3571 50C56.7779 50 58.1406 50.5644 59.1452 51.5691C60.1499 52.5737 60.7143 53.9363 60.7143 55.3571V67.1429H69.2857C71.559 67.1429 73.7392 68.0459 75.3466 69.6534C76.9541 71.2608 77.8571 73.441 77.8571 75.7143V77.8571" stroke="#0C07FD" stroke-width="4" stroke-linecap="round" stroke-linejoin="round"/>
<path d="M24.2857 26.4286C25.4691 26.4286 26.4285 25.4692 26.4285 24.2857C26.4285 23.1023 25.4691 22.1429 24.2857 22.1429C23.1022 22.1429 22.1428 23.1023 22.1428 24.2857C22.1428 25.4692 23.1022 26.4286 24.2857 26.4286Z" stroke="#0C07FD" stroke-width="4" stroke-linecap="round" stroke-linejoin="round"/>
<path d="M41.4285 26.4286C42.612 26.4286 43.5714 25.4692 43.5714 24.2857C43.5714 23.1023 42.612 22.1429 41.4285 22.1429C40.245 22.1429 39.2856 23.1023 39.2856 24.2857C39.2856 25.4692 40.245 26.4286 41.4285 26.4286Z" stroke="#0C07FD" stroke-width="4" stroke-linecap="round" stroke-linejoin="round"/>
<path d="M58.5713 26.4286C59.7548 26.4286 60.7142 25.4692 60.7142 24.2857C60.7142 23.1023 59.7548 22.1429 58.5713 22.1429C57.3879 22.1429 56.4285 23.1023 56.4285 24.2857C56.4285 25.4692 57.3879 26.4286 58.5713 26.4286Z" stroke="#0C07FD" stroke-width="4" stroke-linecap="round" stroke-linejoin="round"/>
<path d="M24.2857 41.4286C25.4691 41.4286 26.4285 40.4692 26.4285 39.2857C26.4285 38.1023 25.4691 37.1429 24.2857 37.1429C23.1022 37.1429 22.1428 38.1023 22.1428 39.2857C22.1428 40.4692 23.1022 41.4286 24.2857 41.4286Z" stroke="#0C07FD" stroke-width="4" stroke-linecap="round" stroke-linejoin="round"/>
<path d="M41.4285 41.4286C42.612 41.4286 43.5714 40.4692 43.5714 39.2857C43.5714 38.1023 42.612 37.1429 41.4285 37.1429C40.245 37.1429 39.2856 38.1023 39.2856 39.2857C39.2856 40.4692 40.245 41.4286 41.4285 41.4286Z" stroke="#0C07FD" stroke-width="4" stroke-linecap="round" stroke-linejoin="round"/>
<path d="M58.5713 41.4286C59.7548 41.4286 60.7142 40.4692 60.7142 39.2857C60.7142 38.1023 59.7548 37.1429 58.5713 37.1429C57.3879 37.1429 56.4285 38.1023 56.4285 39.2857C56.4285 40.4692 57.3879 41.4286 58.5713 41.4286Z" stroke="#0C07FD" stroke-width="4" stroke-linecap="round" stroke-linejoin="round"/>
<path d="M24.2857 56.4286C25.4691 56.4286 26.4285 55.4692 26.4285 54.2857C26.4285 53.1023 25.4691 52.1429 24.2857 52.1429C23.1022 52.1429 22.1428 53.1023 22.1428 54.2857C22.1428 55.4692 23.1022 56.4286 24.2857 56.4286Z" stroke="#0C07FD" stroke-width="4" stroke-linecap="round" stroke-linejoin="round"/>
<path d="M41.4285 56.4286C40.8602 56.4286 40.3151 56.2028 39.9133 55.801C39.5114 55.3991 39.2856 54.8541 39.2856 54.2857C39.2856 53.7174 39.5114 53.1724 39.9133 52.7705C40.3151 52.3686 40.8602 52.1429 41.4285 52.1429V56.4286Z" stroke="#0C07FD" stroke-width="4" stroke-linecap="round" stroke-linejoin="round"/>
</g>
<defs>
<clipPath id="clip0_586_603">
<rect width="60" height="60" fill="white" transform="translate(20 20)"/>
</clipPath>
</defs>
</svg>
