<svg width="101" height="100" viewBox="0 0 101 100" fill="none" xmlns="http://www.w3.org/2000/svg">
<rect x="0.162842" width="100" height="100" rx="8" fill="#FFE4D9"/>
<path d="M50.1628 22.5L27.6628 32.5V47.5C27.6628 61.375 37.2628 74.35 50.1628 77.5C63.0628 74.35 72.6628 61.375 72.6628 47.5V32.5L50.1628 22.5ZM50.1628 27.95L67.6628 35.75V48.05C67.6628 52.3 66.4128 56.625 64.2878 60.425C60.1628 57.35 53.3128 56.25 50.1628 56.25C47.0128 56.25 40.1628 57.35 36.0378 60.425C33.9128 56.625 32.6628 52.3 32.6628 48.05V35.75L50.1628 27.95ZM50.1628 35C47.8422 35 45.6166 35.9219 43.9757 37.5628C42.3347 39.2038 41.4128 41.4294 41.4128 43.75C41.4128 46.0706 42.3347 48.2962 43.9757 49.9372C45.6166 51.5781 47.8422 52.5 50.1628 52.5C52.4835 52.5 54.7091 51.5781 56.35 49.9372C57.991 48.2962 58.9128 46.0706 58.9128 43.75C58.9128 41.4294 57.991 39.2038 56.35 37.5628C54.7091 35.9219 52.4835 35 50.1628 35ZM50.1628 40C51.1574 40 52.1112 40.3951 52.8145 41.0983C53.5178 41.8016 53.9128 42.7554 53.9128 43.75C53.9128 44.7446 53.5178 45.6984 52.8145 46.4017C52.1112 47.1049 51.1574 47.5 50.1628 47.5C49.1683 47.5 48.2145 47.1049 47.5112 46.4017C46.8079 45.6984 46.4128 44.7446 46.4128 43.75C46.4128 42.7554 46.8079 41.8016 47.5112 41.0983C48.2145 40.3951 49.1683 40 50.1628 40ZM50.1628 61.25C54.0878 61.25 59.2628 62.775 61.4878 64.6C58.3878 68.45 54.4128 71.375 50.1628 72.5C45.9128 71.375 41.9378 68.45 38.8378 64.6C41.0878 62.775 46.2378 61.25 50.1628 61.25Z" fill="#FE4C02"/>
</svg>
