<svg width="100" height="101" viewBox="0 0 100 101" fill="none" xmlns="http://www.w3.org/2000/svg">
<rect y="0.691406" width="100" height="100" rx="8" fill="#FFEFD6"/>
<g filter="url(#filter0_d_474_610)">
<path d="M28.3287 59.847C28.3287 47.9389 37.9831 38.2845 49.8912 38.2845H50.9469C62.8531 38.2845 72.5094 47.9389 72.5094 59.847V60.3833C72.5094 64.7594 70.771 68.9562 67.6766 72.0506C64.5823 75.1449 60.3854 76.8833 56.0094 76.8833H44.8287C40.4527 76.8833 36.2558 75.1449 33.1615 72.0506C30.0671 68.9562 28.3287 64.7594 28.3287 60.3833V59.847Z" fill="url(#paint0_radial_474_610)"/>
<path d="M28.3287 59.847C28.3287 47.9389 37.9831 38.2845 49.8912 38.2845H50.9469C62.8531 38.2845 72.5094 47.9389 72.5094 59.847V60.3833C72.5094 64.7594 70.771 68.9562 67.6766 72.0506C64.5823 75.1449 60.3854 76.8833 56.0094 76.8833H44.8287C40.4527 76.8833 36.2558 75.1449 33.1615 72.0506C30.0671 68.9562 28.3287 64.7594 28.3287 60.3833V59.847Z" fill="url(#paint1_radial_474_610)"/>
</g>
<path d="M28.3287 59.847C28.3287 47.9389 37.9831 38.2845 49.8912 38.2845H50.9469C62.8531 38.2845 72.5094 47.9389 72.5094 59.847V60.3833C72.5094 64.7594 70.771 68.9562 67.6766 72.0506C64.5823 75.1449 60.3854 76.8833 56.0094 76.8833H44.8287C40.4527 76.8833 36.2558 75.1449 33.1615 72.0506C30.0671 68.9562 28.3287 64.7594 28.3287 60.3833V59.847Z" fill="url(#paint2_radial_474_610)"/>
<path d="M28.3287 59.847C28.3287 47.9389 37.9831 38.2845 49.8912 38.2845H50.9469C62.8531 38.2845 72.5094 47.9389 72.5094 59.847V60.3833C72.5094 64.7594 70.771 68.9562 67.6766 72.0506C64.5823 75.1449 60.3854 76.8833 56.0094 76.8833H44.8287C40.4527 76.8833 36.2558 75.1449 33.1615 72.0506C30.0671 68.9562 28.3287 64.7594 28.3287 60.3833V59.847Z" fill="url(#paint3_radial_474_610)"/>
<g filter="url(#filter1_dd_474_610)">
<path d="M42.8018 29.4945C43.6831 30.9964 44.9674 32.9239 46.6174 34.5045H54.2206C55.8706 32.9239 57.1531 30.9983 58.0362 29.4945C58.1418 29.3101 58.2086 29.1061 58.2324 28.8949C58.2561 28.6837 58.2364 28.4699 58.1744 28.2667C58.1124 28.0634 58.0094 27.875 57.8718 27.7131C57.7342 27.5512 57.5649 27.4191 57.3743 27.3251C56.7743 27.0176 56.0693 27.1639 55.4862 27.5033C54.1699 28.2701 53.4106 27.3664 52.2499 25.5908C51.6668 24.6983 50.7762 24.6514 50.4181 24.6458C50.0618 24.6514 49.1712 24.6983 48.5881 25.5908C47.4256 27.3664 46.6681 28.2701 45.3518 27.5033C44.7687 27.1639 44.0637 27.0176 43.4618 27.3251C43.2714 27.4193 43.1023 27.5515 42.9649 27.7135C42.8275 27.8755 42.7247 28.0639 42.6628 28.2671C42.601 28.4704 42.5814 28.6841 42.6053 28.8952C42.6292 29.1063 42.6961 29.3102 42.8018 29.4945Z" fill="url(#paint4_linear_474_610)"/>
</g>
<g filter="url(#filter2_f_474_610)">
<path d="M51.5 47.4252C51.5 47.0273 51.342 46.6458 51.0607 46.3645C50.7794 46.0832 50.3978 45.9252 50 45.9252C49.6022 45.9252 49.2207 46.0832 48.9394 46.3645C48.6581 46.6458 48.5 47.0273 48.5 47.4252V48.8408C48.5 49.1764 48.275 49.467 47.9619 49.587C47.421 49.7926 46.9111 50.0722 46.4469 50.4177C45.7632 50.9185 45.2094 51.5758 44.832 52.3346C44.4546 53.0934 44.2644 53.9315 44.2775 54.7789C44.2775 56.7664 45.1738 58.2064 46.3906 59.1289C47.5494 60.0102 48.95 60.3889 50.0656 60.4902C50.5194 60.5314 51.1963 60.6533 51.755 61.0058C52.2406 61.3114 52.7225 61.8345 52.8238 62.9558C52.9213 64.0283 52.4863 64.6658 51.9181 65.0989C51.2619 65.5995 50.4988 65.7589 50.3056 65.7589C49.8538 65.7589 49.0794 65.6989 48.4231 65.3427C47.8719 65.0427 47.2794 64.4783 47.1556 63.0964C47.1201 62.7001 46.9285 62.3341 46.6232 62.079C46.3178 61.8239 45.9235 61.7006 45.5272 61.7361C45.1309 61.7717 44.7649 61.9632 44.5098 62.2686C44.2547 62.574 44.1313 62.9682 44.1669 63.3645C44.3806 65.7627 45.5731 67.2083 46.9925 67.9808C47.3056 68.1495 47.6225 68.2827 47.9319 68.3877C48.0935 68.4382 48.2352 68.538 48.3371 68.6732C48.439 68.8084 48.496 68.9722 48.5 69.1414V70.422C48.5 70.8199 48.6581 71.2014 48.9394 71.4827C49.2207 71.764 49.6022 71.922 50 71.922C50.3978 71.922 50.7794 71.764 51.0607 71.4827C51.342 71.2014 51.5 70.8199 51.5 70.422V69.1545C51.5 68.817 51.7288 68.5227 52.0475 68.4045C52.61 68.1983 53.1988 67.8945 53.735 67.4858C54.9819 66.5352 56.0188 64.9545 55.8125 62.6858C55.6213 60.5839 54.5675 59.3183 53.3375 58.542C52.4113 57.9771 51.3701 57.6272 50.2906 57.5183C48.5863 57.4302 47.2775 56.4889 47.2775 54.7789C47.2775 53.8377 47.6525 53.1477 48.2038 52.7352C49.3456 51.7677 51.2863 51.8989 52.2031 53.1139C52.6081 53.652 52.79 54.2445 52.8313 54.7789C52.895 55.6039 53.6094 56.262 54.4363 56.1983C55.2613 56.1364 55.8781 55.4895 55.8144 54.6627C55.7242 53.4753 55.2997 52.3377 54.59 51.3814C54.02 50.6239 52.9419 49.9002 52.0588 49.5364C51.8994 49.4766 51.7614 49.371 51.6619 49.2328C51.5625 49.0947 51.5062 48.9303 51.5 48.7602V47.4252Z" fill="url(#paint5_linear_474_610)"/>
</g>
<g filter="url(#filter3_dd_474_610)">
<path d="M51.8749 47.2339C51.8749 46.8361 51.7169 46.4545 51.4356 46.1732C51.1543 45.8919 50.7728 45.7339 50.3749 45.7339C49.9771 45.7339 49.5956 45.8919 49.3143 46.1732C49.033 46.4545 48.8749 46.8361 48.8749 47.2339V48.6495C48.8749 48.987 48.6499 49.2758 48.3368 49.3958C47.7959 49.6014 47.2861 49.8809 46.8218 50.2264C46.1386 50.7275 45.5853 51.3849 45.2082 52.1437C44.8311 52.9024 44.6411 53.7404 44.6543 54.5876C44.6543 56.5751 45.5487 58.0151 46.7656 58.9376C47.9243 59.8189 49.3231 60.1995 50.4406 60.3008C50.8943 60.342 51.5712 60.462 52.1318 60.8145C52.6156 61.1201 53.0974 61.6433 53.2006 62.7645C53.2981 63.8389 52.8612 64.4764 52.2912 64.9095C51.6349 65.4101 50.8737 65.5676 50.6787 65.5676C50.2287 65.5676 49.4543 65.5076 48.7981 65.1533C48.2468 64.8533 47.6543 64.287 47.5306 62.907C47.5131 62.7108 47.4571 62.5199 47.3659 62.3453C47.2746 62.1707 47.1499 62.0157 46.9987 61.8893C46.8476 61.7629 46.6731 61.6675 46.4851 61.6086C46.2971 61.5496 46.0993 61.5283 45.9031 61.5458C45.7068 61.5632 45.5159 61.6192 45.3413 61.7105C45.1667 61.8017 45.0118 61.9265 44.8854 62.0776C44.759 62.2287 44.6636 62.4033 44.6046 62.5913C44.5457 62.7793 44.5243 62.977 44.5418 63.1733C44.7556 65.5733 45.9481 67.0189 47.3674 67.7895C47.6806 67.9583 47.9974 68.0933 48.3068 68.1964C48.6349 68.3089 48.8749 68.6051 48.8749 68.952V70.2326C48.8749 70.6305 49.033 71.012 49.3143 71.2933C49.5956 71.5746 49.9771 71.7326 50.3749 71.7326C50.7728 71.7326 51.1543 71.5746 51.4356 71.2933C51.7169 71.012 51.8749 70.6305 51.8749 70.2326V68.9651C51.8749 68.6258 52.1037 68.3333 52.4224 68.2151C52.9849 68.0089 53.5737 67.7051 54.1099 67.2964C55.3568 66.3458 56.3937 64.7633 56.1874 62.4945C55.9962 60.3926 54.9424 59.1289 53.7124 58.3508C52.7862 57.7857 51.745 57.4359 50.6656 57.327C48.9612 57.2389 47.6524 56.2976 47.6524 54.5895C47.6524 53.6483 48.0274 52.9583 48.5787 52.5458C49.7206 51.5783 51.6612 51.7095 52.5781 52.9245C52.9831 53.4626 53.1649 54.0551 53.2062 54.5876C53.2699 55.4126 53.9843 56.0726 54.8112 56.0089C55.6362 55.9451 56.2531 55.2983 56.1893 54.4714C56.0992 53.284 55.6747 52.1463 54.9649 51.1901C54.3949 50.4345 53.3168 49.7089 52.4337 49.3451C52.2744 49.2853 52.1363 49.1797 52.0369 49.0416C51.9374 48.9034 51.8811 48.739 51.8749 48.5689V47.2339Z" fill="url(#paint6_linear_474_610)"/>
</g>
<g filter="url(#filter4_d_474_610)">
<path d="M53.78 34.5045H46.97C45.8817 34.5045 44.9994 35.3868 44.9994 36.4751V36.4883C44.9994 37.5766 45.8817 38.4589 46.97 38.4589H53.78C54.8684 38.4589 55.7506 37.5766 55.7506 36.4883V36.4751C55.7506 35.3868 54.8684 34.5045 53.78 34.5045Z" fill="url(#paint7_linear_474_610)"/>
<path d="M53.78 34.5045H46.97C45.8817 34.5045 44.9994 35.3868 44.9994 36.4751V36.4883C44.9994 37.5766 45.8817 38.4589 46.97 38.4589H53.78C54.8684 38.4589 55.7506 37.5766 55.7506 36.4883V36.4751C55.7506 35.3868 54.8684 34.5045 53.78 34.5045Z" fill="url(#paint8_radial_474_610)"/>
</g>
<path d="M53.78 34.5045H46.97C45.8817 34.5045 44.9994 35.3868 44.9994 36.4751V36.4883C44.9994 37.5766 45.8817 38.4589 46.97 38.4589H53.78C54.8684 38.4589 55.7506 37.5766 55.7506 36.4883V36.4751C55.7506 35.3868 54.8684 34.5045 53.78 34.5045Z" fill="url(#paint9_radial_474_610)"/>
<defs>
<filter id="filter0_d_474_610" x="25.8287" y="33.2845" width="51.1807" height="45.5988" filterUnits="userSpaceOnUse" color-interpolation-filters="sRGB">
<feFlood flood-opacity="0" result="BackgroundImageFix"/>
<feColorMatrix in="SourceAlpha" type="matrix" values="0 0 0 0 0 0 0 0 0 0 0 0 0 0 0 0 0 0 127 0" result="hardAlpha"/>
<feOffset dx="1" dy="-1.5"/>
<feGaussianBlur stdDeviation="1.75"/>
<feComposite in2="hardAlpha" operator="out"/>
<feColorMatrix type="matrix" values="0 0 0 0 0.713726 0 0 0 0 0.321569 0 0 0 0 0.211765 0 0 0 1 0"/>
<feBlend mode="normal" in2="BackgroundImageFix" result="effect1_dropShadow_474_610"/>
<feBlend mode="normal" in="SourceGraphic" in2="effect1_dropShadow_474_610" result="shape"/>
</filter>
<filter id="filter1_dd_474_610" x="42.0955" y="23.8958" width="16.7467" height="11.1088" filterUnits="userSpaceOnUse" color-interpolation-filters="sRGB">
<feFlood flood-opacity="0" result="BackgroundImageFix"/>
<feColorMatrix in="SourceAlpha" type="matrix" values="0 0 0 0 0 0 0 0 0 0 0 0 0 0 0 0 0 0 127 0" result="hardAlpha"/>
<feOffset dx="-0.2" dy="0.2"/>
<feGaussianBlur stdDeviation="0.15"/>
<feComposite in2="hardAlpha" operator="out"/>
<feColorMatrix type="matrix" values="0 0 0 0 1 0 0 0 0 0.92549 0 0 0 0 0.403922 0 0 0 1 0"/>
<feBlend mode="normal" in2="BackgroundImageFix" result="effect1_dropShadow_474_610"/>
<feColorMatrix in="SourceAlpha" type="matrix" values="0 0 0 0 0 0 0 0 0 0 0 0 0 0 0 0 0 0 127 0" result="hardAlpha"/>
<feOffset dx="0.1" dy="-0.25"/>
<feGaussianBlur stdDeviation="0.25"/>
<feComposite in2="hardAlpha" operator="out"/>
<feColorMatrix type="matrix" values="0 0 0 0 0.788235 0 0 0 0 0.364706 0 0 0 0 0.12549 0 0 0 1 0"/>
<feBlend mode="normal" in2="effect1_dropShadow_474_610" result="effect2_dropShadow_474_610"/>
<feBlend mode="normal" in="SourceGraphic" in2="effect2_dropShadow_474_610" result="shape"/>
</filter>
<filter id="filter2_f_474_610" x="43.8609" y="45.6252" width="12.278" height="26.5968" filterUnits="userSpaceOnUse" color-interpolation-filters="sRGB">
<feFlood flood-opacity="0" result="BackgroundImageFix"/>
<feBlend mode="normal" in="SourceGraphic" in2="BackgroundImageFix" result="shape"/>
<feGaussianBlur stdDeviation="0.15" result="effect1_foregroundBlur_474_610"/>
</filter>
<filter id="filter3_dd_474_610" x="44.2159" y="45.2339" width="12.4479" height="26.8688" filterUnits="userSpaceOnUse" color-interpolation-filters="sRGB">
<feFlood flood-opacity="0" result="BackgroundImageFix"/>
<feColorMatrix in="SourceAlpha" type="matrix" values="0 0 0 0 0 0 0 0 0 0 0 0 0 0 0 0 0 0 127 0" result="hardAlpha"/>
<feOffset dx="0.15" dy="-0.2"/>
<feGaussianBlur stdDeviation="0.15"/>
<feComposite in2="hardAlpha" operator="out"/>
<feColorMatrix type="matrix" values="0 0 0 0 0.352941 0 0 0 0 0.168627 0 0 0 0 0.188235 0 0 0 1 0"/>
<feBlend mode="normal" in2="BackgroundImageFix" result="effect1_dropShadow_474_610"/>
<feColorMatrix in="SourceAlpha" type="matrix" values="0 0 0 0 0 0 0 0 0 0 0 0 0 0 0 0 0 0 127 0" result="hardAlpha"/>
<feOffset dx="-0.1" dy="0.15"/>
<feGaussianBlur stdDeviation="0.11"/>
<feComposite in2="hardAlpha" operator="out"/>
<feColorMatrix type="matrix" values="0 0 0 0 0.670588 0 0 0 0 0.458824 0 0 0 0 0.403922 0 0 0 1 0"/>
<feBlend mode="normal" in2="effect1_dropShadow_474_610" result="effect2_dropShadow_474_610"/>
<feBlend mode="normal" in="SourceGraphic" in2="effect2_dropShadow_474_610" result="shape"/>
</filter>
<filter id="filter4_d_474_610" x="43.9994" y="32.9045" width="12.7512" height="5.95435" filterUnits="userSpaceOnUse" color-interpolation-filters="sRGB">
<feFlood flood-opacity="0" result="BackgroundImageFix"/>
<feColorMatrix in="SourceAlpha" type="matrix" values="0 0 0 0 0 0 0 0 0 0 0 0 0 0 0 0 0 0 127 0" result="hardAlpha"/>
<feOffset dy="-0.6"/>
<feGaussianBlur stdDeviation="0.5"/>
<feComposite in2="hardAlpha" operator="out"/>
<feColorMatrix type="matrix" values="0 0 0 0 0.388235 0 0 0 0 0.223529 0 0 0 0 0.109804 0 0 0 1 0"/>
<feBlend mode="normal" in2="BackgroundImageFix" result="effect1_dropShadow_474_610"/>
<feBlend mode="normal" in="SourceGraphic" in2="effect1_dropShadow_474_610" result="shape"/>
</filter>
<radialGradient id="paint0_radial_474_610" cx="0" cy="0" r="1" gradientUnits="userSpaceOnUse" gradientTransform="translate(56.4521 41.9037) rotate(100.07) scale(34.5161 36.1517)">
<stop stop-color="#F6C93B"/>
<stop offset="1" stop-color="#E88340"/>
</radialGradient>
<radialGradient id="paint1_radial_474_610" cx="0" cy="0" r="1" gradientUnits="userSpaceOnUse" gradientTransform="translate(65.1263 47.2918) rotate(133.199) scale(13.1819 22.0849)">
<stop stop-color="#FFE065"/>
<stop offset="1" stop-color="#FFE065" stop-opacity="0"/>
</radialGradient>
<radialGradient id="paint2_radial_474_610" cx="0" cy="0" r="1" gradientUnits="userSpaceOnUse" gradientTransform="translate(31.3756 47.2939) rotate(31.6513) scale(10.0495 24.9062)">
<stop offset="0.187" stop-color="#FFA45D"/>
<stop offset="1" stop-color="#FFA45D" stop-opacity="0"/>
</radialGradient>
<radialGradient id="paint3_radial_474_610" cx="0" cy="0" r="1" gradientUnits="userSpaceOnUse" gradientTransform="translate(50.4181 68.0352) rotate(-90) scale(30.5859 46.0823)">
<stop offset="0.928" stop-color="#F3BD46" stop-opacity="0"/>
<stop offset="0.98" stop-color="#917011"/>
</radialGradient>
<linearGradient id="paint4_linear_474_610" x1="52.7693" y1="27.987" x2="50.4181" y2="34.5045" gradientUnits="userSpaceOnUse">
<stop stop-color="#F3C048"/>
<stop offset="1" stop-color="#E67A41"/>
</linearGradient>
<linearGradient id="paint5_linear_474_610" x1="50" y1="46.5458" x2="50" y2="70.5702" gradientUnits="userSpaceOnUse">
<stop stop-color="#A6782C"/>
<stop offset="1" stop-color="#B95940"/>
</linearGradient>
<linearGradient id="paint6_linear_474_610" x1="56.8643" y1="61.707" x2="44.5362" y2="61.707" gradientUnits="userSpaceOnUse">
<stop stop-color="#9D6360"/>
<stop offset="1" stop-color="#724A4D"/>
</linearGradient>
<linearGradient id="paint7_linear_474_610" x1="46.4938" y1="36.4826" x2="55.7506" y2="36.4826" gradientUnits="userSpaceOnUse">
<stop stop-color="#834B41"/>
<stop offset="1" stop-color="#735854"/>
</linearGradient>
<radialGradient id="paint8_radial_474_610" cx="0" cy="0" r="1" gradientUnits="userSpaceOnUse" gradientTransform="translate(53.8756 35.8676) rotate(180) scale(3.50098 2.63672)">
<stop stop-color="#7D5A54"/>
<stop offset="1" stop-color="#7D5A54" stop-opacity="0"/>
</radialGradient>
<radialGradient id="paint9_radial_474_610" cx="0" cy="0" r="1" gradientUnits="userSpaceOnUse" gradientTransform="translate(54.3444 36.4826) rotate(180) scale(10.3711 8.30818)">
<stop offset="0.695" stop-color="#B3624D" stop-opacity="0"/>
<stop offset="0.96" stop-color="#B3624D"/>
</radialGradient>
</defs>
</svg>
