<svg width="100" height="100" viewBox="0 0 100 100" fill="none" xmlns="http://www.w3.org/2000/svg">
<rect width="100" height="100" rx="8" fill="#FFE8DF"/>
<path d="M49.9999 40.1775C54.7088 40.1775 58.5261 36.3602 58.5261 31.6512C58.5261 26.9423 54.7088 23.125 49.9999 23.125C45.291 23.125 41.4736 26.9423 41.4736 31.6512C41.4736 36.3602 45.291 40.1775 49.9999 40.1775Z" stroke="#FE4C02" stroke-width="4" stroke-linecap="round" stroke-linejoin="round"/>
<path d="M58.2787 29.6125C67.2062 29.6125 78.5112 40.69 74.3312 56.7425C70.4237 39.755 62.2025 37.08 57.125 36.3325" stroke="#FE4C02" stroke-width="4" stroke-linecap="round" stroke-linejoin="round"/>
<path d="M32.9686 69.6775C37.6776 69.6775 41.4949 65.8602 41.4949 61.1513C41.4949 56.4423 37.6776 52.625 32.9686 52.625C28.2597 52.625 24.4424 56.4423 24.4424 61.1513C24.4424 65.8602 28.2597 69.6775 32.9686 69.6775Z" stroke="#FE4C02" stroke-width="4" stroke-linecap="round" stroke-linejoin="round"/>
<path d="M27.0626 55.0013C22.6001 47.27 26.5401 31.9388 42.5326 27.5338C29.7739 39.4113 31.5701 47.8688 33.4601 52.6388" stroke="#FE4C02" stroke-width="4" stroke-linecap="round" stroke-linejoin="round"/>
<path d="M67.0311 69.6775C71.74 69.6775 75.5574 65.8602 75.5574 61.1513C75.5574 56.4423 71.74 52.625 67.0311 52.625C62.3222 52.625 58.5049 56.4423 58.5049 61.1513C58.5049 65.8602 62.3222 69.6775 67.0311 69.6775Z" stroke="#FE4C02" stroke-width="4" stroke-linecap="round" stroke-linejoin="round"/>
<path d="M64.6587 69.34C60.1962 77.0713 44.9475 81.3238 33.1362 69.6775C49.8025 74.7875 56.2287 69.0038 59.415 64.9813" stroke="#FE4C02" stroke-width="4" stroke-linecap="round" stroke-linejoin="round"/>
</svg>
