<svg width="100" height="100" viewBox="0 0 100 100" fill="none" xmlns="http://www.w3.org/2000/svg">
<rect width="100" height="100" rx="8" fill="#E8FFF3"/>
<path d="M71.6064 22.0032C72.4553 25.9673 70.4677 29.3464 68.0504 30.5176C63.303 25.8847 56.8153 23.0286 49.6668 23.0286C35.1355 23.0286 23.3324 34.8317 23.3324 49.363C23.3326 50.7871 23.4479 52.2089 23.6769 53.6146C24.2773 50.9509 24.9843 48.3919 25.7679 45.913C25.7681 45.9121 25.7674 45.9106 25.7679 45.9095C27.4402 34.2017 37.4919 25.2184 49.6665 25.2184C56.0826 25.2184 61.9091 27.7145 66.2303 31.7884C66.0072 32.6785 65.712 33.617 65.3549 34.5862C61.5022 30.6024 56.1088 28.1187 50.139 28.1187C39.9883 28.1187 31.4928 35.2863 29.4371 44.829L29.8765 45.7407C31.0621 43.7494 32.2999 41.8472 33.5717 40.006C36.8213 34.2158 43.0167 30.3088 50.139 30.3088C55.8543 30.3088 60.9715 32.8236 64.4506 36.8089C64.037 37.7408 63.5912 38.6581 63.1139 39.5591C60.1854 35.5623 55.4628 32.96 50.1389 32.96C43.0027 32.96 36.9378 37.6328 34.8389 44.0782L34.8828 44.3088C36.5304 42.6248 38.2144 41.0796 39.9218 39.6213C42.4595 36.8709 46.0937 35.1498 50.1392 35.1498C55.114 35.1498 59.47 37.7525 61.9238 41.6721C60.1974 44.5615 58.1513 47.2725 56.0497 49.2858L53.8305 47.5718L52.4938 49.3078L55.2076 51.4025L49.7326 58.4812L51.4649 59.8216L56.9434 52.7427L59.6608 54.841L60.9974 53.1053L58.5437 51.212C59.9371 48.7381 62.6926 47.6999 63.949 49.4724C72.7306 43.4082 85.0423 34.0174 71.6066 22.003L71.6064 22.0032ZM48.3519 40.2406L42.8734 47.323L40.1562 45.2246L38.8196 46.9567L41.2731 48.8539C39.8797 51.3278 37.1244 52.3658 35.868 50.5933C27.0865 56.6574 14.7746 66.0483 28.2103 78.0628C27.2822 73.7288 29.744 70.0952 32.4511 69.2808C37.0695 73.2771 43.0885 75.6968 49.6667 75.6968C64.1979 75.6968 76.001 63.8937 76.001 49.3628C76.001 48.0322 75.9026 46.7257 75.7116 45.4479C75.062 48.2712 74.2924 50.9733 73.4411 53.5924C71.4448 64.9186 61.5712 73.507 49.6668 73.507C43.5798 73.507 38.0246 71.2613 33.7806 67.5524C34.0937 66.4536 34.5051 65.2932 35.0001 64.1028C38.8464 68.0362 44.2115 70.4785 50.1393 70.4785C59.8655 70.4785 68.073 63.8992 70.5518 54.9547L69.9218 53.644C68.689 55.7327 67.4008 57.7229 66.0729 59.6463C62.6885 64.8511 56.821 68.2887 50.1389 68.2887C44.5022 68.2887 39.4456 65.8432 35.9704 61.9533C36.4539 60.956 36.9731 59.9763 37.5269 59.0162C40.4759 62.739 45.0315 65.132 50.1392 65.132C56.6575 65.132 62.2783 61.2363 64.8022 55.6508L64.5715 54.4531C63.111 55.9815 61.6222 57.3978 60.111 58.734C57.5882 61.3311 54.0552 62.942 50.1393 62.942C45.4207 62.942 41.2612 60.601 38.7501 57.0166C40.2796 54.6494 41.9989 52.4666 43.7633 50.7764L45.9864 52.4939L47.323 50.7583L44.6058 48.6597L50.0843 41.5809L48.3519 40.2406Z" fill="#0FA958"/>
</svg>
