<svg width="100" height="100" viewBox="0 0 100 100" fill="none" xmlns="http://www.w3.org/2000/svg">
<rect width="100" height="100" rx="8" fill="#FFFBE8"/>
<path d="M36.5 29C34.5109 29 32.6032 29.7902 31.1967 31.1967C29.7902 32.6032 29 34.5109 29 36.5V63.5C29 65.4891 29.7902 67.3968 31.1967 68.8033C32.6032 70.2098 34.5109 71 36.5 71H48.8C48.3094 70.0412 47.9145 69.0363 47.621 68H36.5C35.3065 68 34.1619 67.5259 33.318 66.682C32.4741 65.8381 32 64.6935 32 63.5V36.5C32 35.3065 32.4741 34.1619 33.318 33.318C34.1619 32.4741 35.3065 32 36.5 32H63.5C64.6935 32 65.8381 32.4741 66.682 33.318C67.5259 34.1619 68 35.3065 68 36.5V47.621C69.047 47.918 70.049 48.311 71 48.8V36.5C71 34.5109 70.2098 32.6032 68.8033 31.1967C67.3968 29.7902 65.4891 29 63.5 29H36.5ZM47.621 59C47.918 57.953 48.311 56.951 48.8 56H36.5C36.1022 56 35.7206 56.158 35.4393 56.4393C35.158 56.7206 35 57.1022 35 57.5C35 57.8978 35.158 58.2794 35.4393 58.5607C35.7206 58.842 36.1022 59 36.5 59H47.621ZM45.5 65C45.8978 65 46.2794 64.842 46.5607 64.5607C46.842 64.2794 47 63.8978 47 63.5C47 63.1022 46.842 62.7206 46.5607 62.4393C46.2794 62.158 45.8978 62 45.5 62H36.5C36.1022 62 35.7206 62.158 35.4393 62.4393C35.158 62.7206 35 63.1022 35 63.5C35 63.8978 35.158 64.2794 35.4393 64.5607C35.7206 64.842 36.1022 65 36.5 65H45.5ZM44 35C44.2902 35 44.5742 35.0841 44.8176 35.2423C45.0609 35.4004 45.2532 35.6258 45.371 35.891L51.371 49.391C51.451 49.571 51.4947 49.7651 51.4997 49.962C51.5047 50.159 51.4708 50.355 51.4001 50.5388C51.3293 50.7227 51.223 50.8908 51.0873 51.0336C50.9516 51.1764 50.789 51.291 50.609 51.371C50.429 51.451 50.2349 51.4947 50.038 51.4997C49.841 51.5047 49.645 51.4708 49.4612 51.4001C49.2773 51.3293 49.1092 51.223 48.9664 51.0873C48.8236 50.9516 48.709 50.789 48.629 50.609L47.024 47H40.976L39.371 50.609C39.2095 50.9726 38.9101 51.2572 38.5388 51.4001C38.1675 51.543 37.7546 51.5325 37.391 51.371C37.0274 51.2095 36.7428 50.9101 36.5999 50.5388C36.457 50.1675 36.4675 49.7546 36.629 49.391L42.629 35.891C42.7468 35.6258 42.9391 35.4004 43.1824 35.2423C43.4258 35.0841 43.7098 35 44 35ZM45.692 44L44 40.193L42.308 44H45.692ZM60.5 36.5C60.5 36.1022 60.342 35.7206 60.0607 35.4393C59.7794 35.158 59.3978 35 59 35C58.6022 35 58.2206 35.158 57.9393 35.4393C57.658 35.7206 57.5 36.1022 57.5 36.5V39.5H54.5C54.1022 39.5 53.7206 39.658 53.4393 39.9393C53.158 40.2206 53 40.6022 53 41C53 41.3978 53.158 41.7794 53.4393 42.0607C53.7206 42.342 54.1022 42.5 54.5 42.5H57.5V45.5C57.5 45.8978 57.658 46.2794 57.9393 46.5607C58.2206 46.842 58.6022 47 59 47C59.3978 47 59.7794 46.842 60.0607 46.5607C60.342 46.2794 60.5 45.8978 60.5 45.5V42.5H63.5C63.8978 42.5 64.2794 42.342 64.5607 42.0607C64.842 41.7794 65 41.3978 65 41C65 40.6022 64.842 40.2206 64.5607 39.9393C64.2794 39.658 63.8978 39.5 63.5 39.5H60.5V36.5ZM77 63.5C77 67.0804 75.5777 70.5142 73.0459 73.0459C70.5142 75.5777 67.0804 77 63.5 77C59.9196 77 56.4858 75.5777 53.9541 73.0459C51.4223 70.5142 50 67.0804 50 63.5C50 59.9196 51.4223 56.4858 53.9541 53.9541C56.4858 51.4223 59.9196 50 63.5 50C67.0804 50 70.5142 51.4223 73.0459 53.9541C75.5777 56.4858 77 59.9196 77 63.5ZM65 57.5C65 57.1022 64.842 56.7206 64.5607 56.4393C64.2794 56.158 63.8978 56 63.5 56C63.1022 56 62.7206 56.158 62.4393 56.4393C62.158 56.7206 62 57.1022 62 57.5V62H57.5C57.1022 62 56.7206 62.158 56.4393 62.4393C56.158 62.7206 56 63.1022 56 63.5C56 63.8978 56.158 64.2794 56.4393 64.5607C56.7206 64.842 57.1022 65 57.5 65H62V69.5C62 69.8978 62.158 70.2794 62.4393 70.5607C62.7206 70.842 63.1022 71 63.5 71C63.8978 71 64.2794 70.842 64.5607 70.5607C64.842 70.2794 65 69.8978 65 69.5V65H69.5C69.8978 65 70.2794 64.842 70.5607 64.5607C70.842 64.2794 71 63.8978 71 63.5C71 63.1022 70.842 62.7206 70.5607 62.4393C70.2794 62.158 69.8978 62 69.5 62H65V57.5Z" fill="#FFD700"/>
</svg>
