<svg width="57" height="56" viewBox="0 0 57 56" fill="none" xmlns="http://www.w3.org/2000/svg">
<rect width="56.3672" height="56" rx="15" fill="#0180EA" fill-opacity="0.7"/>
<path d="M29.6816 16.1658C29.1744 15.7384 28.5325 15.5039 27.8691 15.5039C27.2058 15.5039 26.5638 15.7384 26.0566 16.1658L17.6191 23.2846C17.306 23.5485 17.0542 23.8777 16.8815 24.249C16.7088 24.6204 16.6192 25.025 16.6191 25.4346V37.6871C16.6191 38.8958 17.5991 39.8746 18.8066 39.8746H28.1504C27.9647 39.4841 27.8686 39.057 27.8691 38.6246V31.1246C27.8691 29.5333 29.1266 28.4283 30.3904 27.7971C31.7291 27.1271 33.4904 26.7496 35.3691 26.7496C36.7166 26.7496 38.0041 26.9446 39.1191 27.3008V25.4333C39.1191 25.0238 39.0295 24.6192 38.8568 24.2478C38.6841 23.8764 38.4323 23.5473 38.1191 23.2833L29.6816 16.1658ZM39.1191 34.9471C39.5566 34.8071 39.9691 34.6408 40.3479 34.4521C40.8051 34.2273 41.2322 33.9459 41.6191 33.6146V38.6246C41.6191 40.3496 38.8204 41.7496 35.3691 41.7496C32.8066 41.7496 30.6041 40.9783 29.6391 39.8746C29.3041 39.4921 29.1191 39.0696 29.1191 38.6246V33.6146C29.5066 33.9521 29.9479 34.2308 30.3904 34.4521C30.5579 34.5358 30.7316 34.6146 30.9116 34.6896C32.1716 35.2096 33.7266 35.4996 35.3691 35.4996C36.7166 35.4996 38.0041 35.3046 39.1191 34.9471ZM29.1191 31.1246C29.1191 30.6796 29.3041 30.2571 29.6391 29.8746C30.6041 28.7708 32.8066 27.9996 35.3691 27.9996C36.7766 27.9996 38.0741 28.2321 39.1191 28.6246C40.6366 29.1946 41.6191 30.1021 41.6191 31.1246C41.6191 32.1471 40.6366 33.0546 39.1191 33.6246C38.0741 34.0171 36.7766 34.2496 35.3691 34.2496C31.9179 34.2496 29.1191 32.8496 29.1191 31.1246Z" fill="white"/>
</svg>
