<svg width="57" height="56" viewBox="0 0 57 56" fill="none" xmlns="http://www.w3.org/2000/svg">
<rect x="0.367188" width="56.3672" height="56" rx="15" fill="#00966A" fill-opacity="0.7"/>
<path d="M34.46 20.5H33.21V19.25C33.21 17.875 32.085 16.75 30.71 16.75H25.71C24.335 16.75 23.21 17.875 23.21 19.25V20.5H21.96C17.8225 20.5 14.46 23.8625 14.46 28C14.46 32.1375 17.8225 35.5 21.96 35.5V39.25H24.46V35.5H31.96V39.25H34.46V35.5C38.5975 35.5 41.96 32.1375 41.96 28C41.96 23.8625 38.5975 20.5 34.46 20.5ZM25.71 19.25H30.71V20.5H25.71V19.25Z" fill="white"/>
</svg>
