<svg width="58" height="56" viewBox="0 0 58 56" fill="none" xmlns="http://www.w3.org/2000/svg">
<rect x="0.734375" width="56.3672" height="56" rx="15" fill="#F54242" fill-opacity="0.7"/>
<path d="M28.333 15.9143C28.1795 15.9167 27.9337 15.986 27.634 16.1202C27.8054 16.1536 27.9501 16.2062 28.0514 16.2718C28.1528 16.3374 28.2066 16.4134 28.2068 16.4909C28.2068 16.545 28.1807 16.5985 28.1301 16.6484C28.0794 16.6984 28.0052 16.7437 27.9115 16.782C27.8179 16.8202 27.7068 16.8505 27.5844 16.8712C27.4621 16.8919 27.331 16.9025 27.1986 16.9025C26.9424 16.9024 26.6959 16.8625 26.5093 16.7909C25.8236 17.2898 25.0677 17.9703 24.3435 18.7455C24.1741 18.927 24.0084 19.1119 23.8463 19.3C23.8883 19.2978 23.9306 19.2966 23.973 19.2965C24.2431 19.2965 24.5022 19.3398 24.6932 19.417C24.8842 19.4942 24.9915 19.5988 24.9915 19.708C24.9915 19.762 24.9652 19.8155 24.914 19.8655C24.8628 19.9154 24.7878 19.9608 24.6932 19.999C24.5987 20.0372 24.4864 20.0675 24.3628 20.0882C24.2392 20.1089 24.1067 20.1195 23.973 20.1195C23.7099 20.1195 23.457 20.0783 23.2673 20.0046C22.4501 21.0478 21.753 22.1591 21.3367 23.1492C25.8385 24.0052 31.0018 23.9434 35.7418 22.9736C35.6863 22.8306 35.6267 22.6892 35.5631 22.5496C35.4239 22.5751 35.2705 22.5885 35.1149 22.5886C34.8476 22.5886 34.5911 22.5496 34.4021 22.4802C34.213 22.4107 34.1068 22.3165 34.1067 22.2183C34.1067 22.1201 34.2129 22.0259 34.402 21.9564C34.5911 21.887 34.8475 21.8479 35.1149 21.8479C35.1476 21.848 35.1803 21.8487 35.2128 21.85C34.6359 20.7959 33.8081 19.6654 32.8767 18.6896C31.3202 17.0588 29.4541 15.8967 28.3331 15.9143H28.333ZM29.674 17.0771C29.8024 17.0771 29.9295 17.0864 30.0481 17.1045C30.1667 17.1226 30.2745 17.1492 30.3652 17.1826C30.456 17.2161 30.528 17.2558 30.5771 17.2995C30.6262 17.3432 30.6514 17.39 30.6514 17.4373C30.6513 17.5328 30.5483 17.6243 30.3651 17.6918C30.1818 17.7594 29.9332 17.7973 29.674 17.7973C29.4148 17.7973 29.1662 17.7594 28.9829 17.6919C28.7996 17.6244 28.6966 17.5328 28.6966 17.4373C28.6965 17.39 28.7218 17.3432 28.7709 17.2995C28.82 17.2558 28.892 17.216 28.9828 17.1826C29.0735 17.1491 29.1813 17.1226 29.2999 17.1045C29.4185 17.0864 29.5457 17.0771 29.674 17.0771ZM31.4459 18.8673C31.7106 18.8673 31.9644 18.9096 32.1515 18.9848C32.3387 19.0601 32.4438 19.1621 32.4439 19.2685C32.4439 19.3749 32.3387 19.477 32.1516 19.5522C31.9644 19.6275 31.7106 19.6698 31.4459 19.6698C31.3148 19.6698 31.1851 19.6594 31.064 19.6392C30.9429 19.6191 30.8329 19.5895 30.7402 19.5523C30.6475 19.515 30.574 19.4708 30.5239 19.4221C30.4737 19.3734 30.4479 19.3212 30.4479 19.2685C30.4479 19.1621 30.5531 19.0601 30.7403 18.9848C30.9274 18.9096 31.1812 18.8673 31.4459 18.8673ZM27.5781 20.1407C27.7106 20.1407 27.8417 20.1513 27.964 20.172C28.0864 20.1927 28.1975 20.223 28.2911 20.2612C28.3848 20.2994 28.459 20.3448 28.5097 20.3947C28.5604 20.4447 28.5864 20.4982 28.5864 20.5522C28.5864 20.6614 28.4802 20.7661 28.2911 20.8432C28.102 20.9204 27.8456 20.9638 27.5782 20.9638C27.4458 20.9638 27.3147 20.9531 27.1923 20.9324C27.07 20.9118 26.9589 20.8814 26.8652 20.8432C26.7716 20.805 26.6973 20.7597 26.6467 20.7097C26.596 20.6598 26.5699 20.6063 26.5699 20.5522C26.5699 20.4982 26.596 20.4447 26.6466 20.3947C26.6973 20.3448 26.7716 20.2994 26.8652 20.2612C26.9588 20.223 27.07 20.1927 27.1923 20.172C27.3147 20.1513 27.4458 20.1407 27.5782 20.1407H27.5781ZM25.3001 22.3006C25.4352 22.3006 25.569 22.3099 25.6939 22.328C25.8187 22.3461 25.9321 22.3726 26.0276 22.406C26.1232 22.4395 26.199 22.4792 26.2507 22.5229C26.3023 22.5666 26.3289 22.6134 26.3289 22.6607C26.3289 22.7562 26.2205 22.8478 26.0276 22.9153C25.8347 22.9828 25.573 23.0207 25.3001 23.0207C25.165 23.0207 25.0312 23.0114 24.9064 22.9933C24.7816 22.9752 24.6682 22.9487 24.5726 22.9153C24.4771 22.8819 24.4013 22.8422 24.3496 22.7985C24.2979 22.7548 24.2713 22.708 24.2713 22.6607C24.2713 22.6134 24.2979 22.5666 24.3495 22.5229C24.4012 22.4792 24.477 22.4395 24.5726 22.406C24.6681 22.3726 24.7815 22.3461 24.9064 22.328C25.0312 22.3099 25.165 22.3006 25.3001 22.3006ZM37.9086 23.5464C31.9653 25.1158 25.1783 25.2253 19.5499 23.836C19.1768 24.2746 18.8514 24.6728 18.6627 25.0636C18.4748 25.4527 18.3926 25.8524 18.4611 26.3892C25.1573 27.9102 32.4392 27.5405 39.2171 26.3221C39.2957 25.9188 39.2361 25.529 39.0375 25.0899C38.8209 24.6105 38.4252 24.0886 37.9086 23.5464ZM38.6395 27.4982C37.3406 27.7183 36.0239 27.9068 34.6962 28.0568C35.2814 30.4929 35.9763 33.2689 35.7218 35.8099L35.6851 36.1773L35.3273 36.2684C31.2697 37.3019 26.9032 38.1102 22.7972 36.2372L22.5365 36.1182L22.4945 35.8348C22.1033 33.1989 22.9125 30.6635 23.3317 28.2336C21.8917 28.0951 20.4627 27.8871 19.0535 27.6001C17.6766 30.9916 16.9225 35.1523 17.2605 38.92C16.6818 39.5214 16.1211 40.2941 16.4236 40.8148C16.9562 41.7312 18.9343 41.2537 20.1248 40.8632C25.5663 42.1308 31.8755 41.9979 37.0962 40.9469C38.1778 41.3362 40.5927 42.063 41.1906 41.034C41.4789 40.5381 40.9836 39.8133 40.4357 39.2257C41.0343 35.1468 39.8534 31.0665 38.6395 27.4982ZM33.638 28.1687C30.5725 28.4652 27.46 28.5451 24.3868 28.3217C23.9788 30.7767 23.2627 33.1316 23.5121 35.3923C27.0619 36.8934 30.9025 36.2814 34.6909 35.3373C34.8237 33.1059 34.1981 30.5178 33.638 28.1687H33.638Z" fill="white"/>
</svg>
