<svg width="57" height="56" viewBox="0 0 57 56" fill="none" xmlns="http://www.w3.org/2000/svg">
<rect x="0.101562" width="56.3672" height="56" rx="15" fill="#7C8DB5" fill-opacity="0.87"/>
<path d="M27.7002 15.9143C27.5467 15.9167 27.3009 15.986 27.0012 16.1202C27.1725 16.1536 27.3172 16.2062 27.4186 16.2718C27.5199 16.3374 27.5738 16.4134 27.574 16.4909C27.574 16.545 27.5479 16.5985 27.4973 16.6484C27.4466 16.6984 27.3723 16.7437 27.2787 16.782C27.1851 16.8202 27.0739 16.8505 26.9516 16.8712C26.8293 16.8919 26.6982 16.9025 26.5658 16.9025C26.3096 16.9024 26.0631 16.8625 25.8765 16.7909C25.1908 17.2898 24.4349 17.9703 23.7107 18.7455C23.5413 18.927 23.3755 19.1119 23.2135 19.3C23.2555 19.2978 23.2978 19.2966 23.3402 19.2965C23.6103 19.2965 23.8694 19.3398 24.0604 19.417C24.2514 19.4942 24.3587 19.5988 24.3587 19.708C24.3587 19.762 24.3324 19.8155 24.2812 19.8655C24.23 19.9154 24.155 19.9608 24.0604 19.999C23.9658 20.0372 23.8536 20.0675 23.73 20.0882C23.6064 20.1089 23.4739 20.1195 23.3402 20.1195C23.077 20.1195 22.8242 20.0783 22.6345 20.0046C21.8173 21.0478 21.1202 22.1591 20.7039 23.1492C25.2057 24.0052 30.369 23.9434 35.109 22.9736C35.0535 22.8306 34.9939 22.6892 34.9302 22.5496C34.7911 22.5751 34.6377 22.5885 34.4821 22.5886C34.2148 22.5886 33.9583 22.5496 33.7693 22.4802C33.5802 22.4107 33.4739 22.3165 33.4739 22.2183C33.4739 22.1201 33.5801 22.0259 33.7692 21.9564C33.9583 21.887 34.2147 21.8479 34.4821 21.8479C34.5148 21.848 34.5475 21.8487 34.58 21.85C34.0031 20.7959 33.1753 19.6654 32.2439 18.6896C30.6874 17.0588 28.8213 15.8967 27.7002 15.9143H27.7002ZM29.0412 17.0771C29.1696 17.0771 29.2967 17.0864 29.4153 17.1045C29.5339 17.1226 29.6417 17.1492 29.7324 17.1826C29.8232 17.2161 29.8952 17.2558 29.9443 17.2995C29.9934 17.3432 30.0186 17.39 30.0186 17.4373C30.0185 17.5328 29.9155 17.6243 29.7323 17.6918C29.549 17.7594 29.3004 17.7973 29.0412 17.7973C28.782 17.7973 28.5334 17.7594 28.3501 17.6919C28.1668 17.6244 28.0638 17.5328 28.0638 17.4373C28.0637 17.39 28.089 17.3432 28.1381 17.2995C28.1872 17.2558 28.2592 17.216 28.3499 17.1826C28.4407 17.1491 28.5485 17.1226 28.6671 17.1045C28.7857 17.0864 28.9128 17.0771 29.0412 17.0771ZM30.8131 18.8673C31.0777 18.8673 31.3316 18.9096 31.5187 18.9848C31.7059 19.0601 31.811 19.1621 31.8111 19.2685C31.8111 19.3749 31.7059 19.477 31.5188 19.5522C31.3316 19.6275 31.0778 19.6698 30.8131 19.6698C30.682 19.6698 30.5523 19.6594 30.4312 19.6392C30.3101 19.6191 30.2001 19.5895 30.1074 19.5523C30.0147 19.515 29.9412 19.4708 29.891 19.4221C29.8409 19.3734 29.8151 19.3212 29.8151 19.2685C29.8151 19.1621 29.9203 19.0601 30.1074 18.9848C30.2946 18.9096 30.5484 18.8673 30.8131 18.8673ZM26.9453 20.1407C27.0777 20.1407 27.2089 20.1513 27.3312 20.172C27.4535 20.1927 27.5647 20.223 27.6583 20.2612C27.752 20.2994 27.8262 20.3448 27.8769 20.3947C27.9276 20.4447 27.9536 20.4982 27.9536 20.5522C27.9536 20.6614 27.8474 20.7661 27.6583 20.8432C27.4692 20.9204 27.2128 20.9638 26.9454 20.9638C26.813 20.9638 26.6819 20.9531 26.5595 20.9324C26.4372 20.9118 26.3261 20.8814 26.2324 20.8432C26.1388 20.805 26.0645 20.7597 26.0139 20.7097C25.9632 20.6598 25.9371 20.6063 25.9371 20.5522C25.9371 20.4982 25.9631 20.4447 26.0138 20.3947C26.0645 20.3448 26.1387 20.2994 26.2324 20.2612C26.326 20.223 26.4372 20.1927 26.5595 20.172C26.6818 20.1513 26.813 20.1407 26.9454 20.1407H26.9453ZM24.6673 22.3006C24.8024 22.3006 24.9362 22.3099 25.0611 22.328C25.1859 22.3461 25.2993 22.3726 25.3948 22.406C25.4904 22.4395 25.5661 22.4792 25.6178 22.5229C25.6695 22.5666 25.6961 22.6134 25.6961 22.6607C25.6961 22.7562 25.5877 22.8478 25.3948 22.9153C25.2018 22.9828 24.9402 23.0207 24.6673 23.0207C24.5322 23.0207 24.3984 23.0114 24.2736 22.9933C24.1488 22.9752 24.0354 22.9487 23.9398 22.9153C23.8443 22.8819 23.7685 22.8422 23.7168 22.7985C23.6651 22.7548 23.6385 22.708 23.6385 22.6607C23.6384 22.6134 23.665 22.5666 23.7167 22.5229C23.7684 22.4792 23.8442 22.4395 23.9398 22.406C24.0353 22.3726 24.1487 22.3461 24.2736 22.328C24.3984 22.3099 24.5322 22.3006 24.6673 22.3006ZM37.2758 23.5464C31.3325 25.1158 24.5455 25.2253 18.917 23.836C18.544 24.2746 18.2186 24.6728 18.0299 25.0636C17.842 25.4527 17.7598 25.8524 17.8283 26.3892C24.5245 27.9102 31.8064 27.5405 38.5843 26.3221C38.6628 25.9188 38.6033 25.529 38.4047 25.0899C38.1881 24.6105 37.7924 24.0886 37.2758 23.5464ZM38.0067 27.4982C36.7077 27.7183 35.3911 27.9068 34.0634 28.0568C34.6486 30.4929 35.3435 33.2689 35.089 35.8099L35.0523 36.1773L34.6945 36.2684C30.6369 37.3019 26.2704 38.1102 22.1644 36.2372L21.9037 36.1182L21.8617 35.8348C21.4704 33.1989 22.2797 30.6635 22.6989 28.2336C21.2589 28.0951 19.8299 27.8871 18.4207 27.6001C17.0438 30.9916 16.2896 35.1523 16.6277 38.92C16.049 39.5214 15.4883 40.2941 15.7908 40.8148C16.3234 41.7312 18.3015 41.2537 19.492 40.8632C24.9335 42.1308 31.2426 41.9979 36.4634 40.9469C37.545 41.3362 39.9599 42.063 40.5578 41.034C40.846 40.5381 40.3508 39.8133 39.8028 39.2257C40.4014 35.1468 39.2206 31.0665 38.0067 27.4982ZM33.0051 28.1687C29.9396 28.4652 26.8272 28.5451 23.754 28.3217C23.346 30.7767 22.6299 33.1316 22.8793 35.3923C26.4291 36.8934 30.2697 36.2814 34.0581 35.3373C34.1909 33.1059 33.5653 30.5178 33.0052 28.1687H33.0051Z" fill="white"/>
</svg>
