<svg width="51" height="51" viewBox="0 0 51 51" fill="none" xmlns="http://www.w3.org/2000/svg">
<circle cx="25.7847" cy="25.6538" r="25" fill="white"/>
<path d="M30.3846 19.4738C29.701 18.6934 29.3243 17.6912 29.3246 16.6538H26.2346V29.0538C26.2107 29.7248 25.9275 30.3604 25.4443 30.8267C24.9612 31.2931 24.316 31.5537 23.6446 31.5538C22.2246 31.5538 21.0446 30.3938 21.0446 28.9538C21.0446 27.2338 22.7046 25.9438 24.4146 26.4738V23.3138C20.9646 22.8538 17.9446 25.5338 17.9446 28.9538C17.9446 32.2838 20.7046 34.6538 23.6346 34.6538C26.7746 34.6538 29.3246 32.1038 29.3246 28.9538V22.6638C30.5776 23.5637 32.0819 24.0465 33.6246 24.0438V20.9538C33.6246 20.9538 31.7446 21.0438 30.3846 19.4738Z" fill="#FE4C02"/>
</svg>
