<svg width="25" height="25" viewBox="0 0 25 25" fill="none" xmlns="http://www.w3.org/2000/svg">
<path d="M17.3846 6.47381C16.701 5.69343 16.3243 4.69124 16.3246 3.65381H13.2346V16.0538C13.2107 16.7248 12.9275 17.3604 12.4443 17.8267C11.9612 18.2931 11.316 18.5537 10.6446 18.5538C9.22458 18.5538 8.04458 17.3938 8.04458 15.9538C8.04458 14.2338 9.70458 12.9438 11.4146 13.4738V10.3138C7.96458 9.85381 4.94458 12.5338 4.94458 15.9538C4.94458 19.2838 7.70458 21.6538 10.6346 21.6538C13.7746 21.6538 16.3246 19.1038 16.3246 15.9538V9.66381C17.5776 10.5637 19.0819 11.0465 20.6246 11.0438V7.95381C20.6246 7.95381 18.7446 8.04381 17.3846 6.47381Z" fill="#FE4C02"/>
</svg>
