<svg width="25" height="24" viewBox="0 0 25 24" fill="none" xmlns="http://www.w3.org/2000/svg">
<path d="M4.15088 11.0666H5.96628C6.99721 11.0666 7.83294 11.9024 7.83294 12.9333V13.8666C7.83294 14.8976 8.66868 15.7333 9.69961 15.7333C10.7305 15.7333 11.5663 16.569 11.5663 17.6V20.3487M8.76628 4.47313V5.93331C8.76628 7.22197 9.81094 8.26664 11.0996 8.26664H11.5663C12.5972 8.26664 13.4329 9.10238 13.4329 10.1333C13.4329 11.1642 14.2687 12 15.2996 12C16.3305 12 17.1663 11.1642 17.1663 10.1333C17.1663 9.10238 18.002 8.26664 19.0329 8.26664L20.0265 8.26664M15.2996 19.922V17.6C15.2996 16.569 16.1353 15.7333 17.1663 15.7333H20.0265M20.8996 12C20.8996 16.6392 17.1388 20.4 12.4996 20.4C7.86042 20.4 4.09961 16.6392 4.09961 12C4.09961 7.36078 7.86042 3.59998 12.4996 3.59998C17.1388 3.59998 20.8996 7.36078 20.8996 12Z" stroke="white" stroke-width="1.67" stroke-linecap="round" stroke-linejoin="round"/>
</svg>
