<svg width="51" height="51" viewBox="0 0 51 51" fill="none" xmlns="http://www.w3.org/2000/svg">
<circle cx="25.7847" cy="25.6538" r="25" fill="white"/>
<path d="M28.7847 25.6538C28.7847 26.2472 28.6087 26.8272 28.2791 27.3205C27.9494 27.8139 27.4809 28.1984 26.9327 28.4254C26.3845 28.6525 25.7813 28.7119 25.1994 28.5962C24.6175 28.4804 24.0829 28.1947 23.6633 27.7751C23.2438 27.3556 22.9581 26.821 22.8423 26.2391C22.7266 25.6571 22.786 25.0539 23.013 24.5058C23.2401 23.9576 23.6246 23.489 24.118 23.1594C24.6113 22.8298 25.1913 22.6538 25.7847 22.6538C26.5796 22.6563 27.3412 22.9731 27.9033 23.5352C28.4653 24.0973 28.7822 24.8589 28.7847 25.6538ZM35.1597 21.5288V29.7788C35.1597 31.1712 34.6065 32.5066 33.622 33.4911C32.6374 34.4757 31.3021 35.0288 29.9097 35.0288H21.6597C20.2673 35.0288 18.9319 34.4757 17.9474 33.4911C16.9628 32.5066 16.4097 31.1712 16.4097 29.7788V21.5288C16.4097 20.1364 16.9628 18.8011 17.9474 17.8165C18.9319 16.8319 20.2673 16.2788 21.6597 16.2788H29.9097C31.3021 16.2788 32.6374 16.8319 33.622 17.8165C34.6065 18.8011 35.1597 20.1364 35.1597 21.5288ZM30.2847 25.6538C30.2847 24.7638 30.0207 23.8938 29.5263 23.1537C29.0318 22.4137 28.329 21.8369 27.5067 21.4964C26.6845 21.1558 25.7797 21.0666 24.9068 21.2403C24.0338 21.4139 23.232 21.8425 22.6027 22.4718C21.9734 23.1012 21.5448 23.903 21.3711 24.7759C21.1975 25.6488 21.2866 26.5536 21.6272 27.3759C21.9678 28.1982 22.5446 28.901 23.2846 29.3954C24.0246 29.8899 24.8947 30.1538 25.7847 30.1538C26.9781 30.1538 28.1227 29.6797 28.9666 28.8358C29.8106 27.9919 30.2847 26.8473 30.2847 25.6538ZM31.7847 20.7788C31.7847 20.5563 31.7187 20.3388 31.5951 20.1538C31.4715 19.9688 31.2958 19.8246 31.0902 19.7394C30.8846 19.6543 30.6584 19.632 30.4402 19.6754C30.222 19.7188 30.0215 19.826 29.8642 19.9833C29.7068 20.1406 29.5997 20.3411 29.5563 20.5593C29.5129 20.7776 29.5352 21.0038 29.6203 21.2093C29.7055 21.4149 29.8496 21.5906 30.0347 21.7142C30.2197 21.8378 30.4372 21.9038 30.6597 21.9038C30.958 21.9038 31.2442 21.7853 31.4552 21.5743C31.6661 21.3633 31.7847 21.0772 31.7847 20.7788Z" fill="#FE4C02"/>
</svg>
