<svg width="25" height="25" viewBox="0 0 25 25" fill="none" xmlns="http://www.w3.org/2000/svg">
<path d="M15.7847 12.6538C15.7847 13.2472 15.6087 13.8272 15.2791 14.3205C14.9494 14.8139 14.4809 15.1984 13.9327 15.4254C13.3845 15.6525 12.7813 15.7119 12.1994 15.5962C11.6175 15.4804 11.0829 15.1947 10.6633 14.7751C10.2438 14.3556 9.95807 13.821 9.84231 13.2391C9.72656 12.6571 9.78597 12.0539 10.013 11.5058C10.2401 10.9576 10.6246 10.489 11.118 10.1594C11.6113 9.82976 12.1913 9.65381 12.7847 9.65381C13.5796 9.65628 14.3412 9.97315 14.9033 10.5352C15.4653 11.0973 15.7822 11.8589 15.7847 12.6538ZM22.1597 8.52881V16.7788C22.1597 18.1712 21.6065 19.5066 20.622 20.4911C19.6374 21.4757 18.3021 22.0288 16.9097 22.0288H8.65967C7.26728 22.0288 5.93192 21.4757 4.94736 20.4911C3.96279 19.5066 3.40967 18.1712 3.40967 16.7788V8.52881C3.40967 7.13642 3.96279 5.80106 4.94736 4.8165C5.93192 3.83193 7.26728 3.27881 8.65967 3.27881H16.9097C18.3021 3.27881 19.6374 3.83193 20.622 4.8165C21.6065 5.80106 22.1597 7.13642 22.1597 8.52881ZM17.2847 12.6538C17.2847 11.7638 17.0207 10.8938 16.5263 10.1537C16.0318 9.41372 15.329 8.83695 14.5067 8.49635C13.6845 8.15576 12.7797 8.06664 11.9068 8.24028C11.0338 8.41391 10.232 8.84249 9.60269 9.47183C8.97335 10.1012 8.54477 10.903 8.37113 11.7759C8.1975 12.6488 8.28662 13.5536 8.62721 14.3759C8.9678 15.1982 9.54458 15.901 10.2846 16.3954C11.0246 16.8899 11.8947 17.1538 12.7847 17.1538C13.9781 17.1538 15.1227 16.6797 15.9666 15.8358C16.8106 14.9919 17.2847 13.8473 17.2847 12.6538ZM18.7847 7.77881C18.7847 7.5563 18.7187 7.3388 18.5951 7.15379C18.4715 6.96879 18.2958 6.82459 18.0902 6.73944C17.8846 6.6543 17.6584 6.63202 17.4402 6.67543C17.222 6.71883 17.0215 6.82598 16.8642 6.98331C16.7068 7.14065 16.5997 7.3411 16.5563 7.55933C16.5129 7.77756 16.5352 8.00376 16.6203 8.20933C16.7055 8.41489 16.8496 8.5906 17.0347 8.71421C17.2197 8.83783 17.4372 8.90381 17.6597 8.90381C17.958 8.90381 18.2442 8.78528 18.4552 8.5743C18.6661 8.36333 18.7847 8.07718 18.7847 7.77881Z" fill="#FE4C02"/>
</svg>
