<svg width="20" height="20" viewBox="0 0 20 20" fill="none" xmlns="http://www.w3.org/2000/svg">
<g clip-path="url(#clip0_99_964)">
<path d="M0.625102 9.90538C0.624652 11.5312 1.04945 13.1186 1.8572 14.5178L0.547852 19.2985L5.44025 18.0157C6.79342 18.7523 8.30956 19.1383 9.85025 19.1384H9.8543C14.9404 19.1384 19.0807 14.9997 19.0828 9.91266C19.0838 7.44763 18.1247 5.12968 16.3822 3.38578C14.6399 1.64203 12.3228 0.681209 9.85393 0.680084C4.7672 0.680084 0.627277 4.81858 0.625177 9.90538" fill="#FE4C02"/>
<path d="M0.295582 9.90239C0.295057 11.5867 0.735082 13.2309 1.57163 14.6802L0.215332 19.6322L5.28316 18.3034C6.67951 19.0648 8.25166 19.4662 9.85141 19.4668H9.85553C15.1241 19.4668 19.4131 15.1792 19.4153 9.91004C19.4162 7.35644 18.4226 4.95517 16.6178 3.14879C14.8128 1.34264 12.4128 0.347241 9.85553 0.346191C4.58603 0.346191 0.297682 4.63319 0.295582 9.90239ZM3.31358 14.4306L3.12436 14.1302C2.32891 12.8654 1.90906 11.4038 1.90966 9.90299C1.91138 5.52337 5.47568 1.96019 9.85853 1.96019C11.981 1.96109 13.9757 2.78849 15.476 4.28969C16.9763 5.79104 17.8018 7.78679 17.8013 9.90944C17.7993 14.2891 14.2349 17.8527 9.85553 17.8527H9.85238C8.42641 17.8519 7.02788 17.469 5.80823 16.7453L5.51798 16.5732L2.51063 17.3617L3.31358 14.4305V14.4306Z" fill="url(#paint0_linear_99_964)"/>
<path d="M7.4663 5.9073C7.28735 5.50957 7.09902 5.50155 6.92885 5.49457C6.7895 5.48857 6.6302 5.48902 6.47105 5.48902C6.31175 5.48902 6.05292 5.54895 5.83415 5.78782C5.61515 6.02692 4.99805 6.60472 4.99805 7.7799C4.99805 8.95515 5.85402 10.0909 5.97335 10.2504C6.09282 10.4096 7.62582 12.8984 10.0537 13.8559C12.0715 14.6515 12.4821 14.4933 12.9201 14.4534C13.3581 14.4136 14.3334 13.8757 14.5323 13.318C14.7315 12.7603 14.7315 12.2822 14.6718 12.1823C14.6121 12.0828 14.4528 12.023 14.2139 11.9036C13.9749 11.7841 12.8006 11.2063 12.5817 11.1265C12.3627 11.0469 12.2034 11.0071 12.0441 11.2463C11.8848 11.4851 11.4274 12.023 11.288 12.1823C11.1487 12.342 11.0093 12.3619 10.7705 12.2424C10.5315 12.1225 9.7622 11.8706 8.84952 11.0569C8.13942 10.4238 7.66002 9.64192 7.52067 9.40275C7.38132 9.16395 7.50575 9.0345 7.62552 8.91547C7.73285 8.80845 7.86447 8.63655 7.98402 8.49712C8.10312 8.35762 8.14287 8.2581 8.22252 8.0988C8.30225 7.93935 8.26235 7.79985 8.20272 7.68037C8.14287 7.5609 7.6787 6.37957 7.4663 5.9073Z" fill="white"/>
</g>
<defs>
<linearGradient id="paint0_linear_99_964" x1="960.215" y1="1928.95" x2="960.215" y2="0.346191" gradientUnits="userSpaceOnUse">
<stop stop-color="#F9F9F9"/>
<stop offset="1" stop-color="white"/>
</linearGradient>
<clipPath id="clip0_99_964">
<rect width="19.2" height="19.35" fill="white" transform="translate(0.215332 0.346191)"/>
</clipPath>
</defs>
</svg>
