<svg width="35" height="34" viewBox="0 0 35 34" fill="none" xmlns="http://www.w3.org/2000/svg">
<g clip-path="url(#clip0_196_12383)">
<path d="M25.3369 22.4174C29.5602 20.2508 32.7618 18.5999 33.0377 18.4715C33.9205 18.0329 34.8322 16.872 33.0377 15.9703C32.4584 15.6867 29.339 14.0872 25.3369 12.0244L19.7888 17.2594L25.3369 22.4173V22.4174Z" fill="#FFD900"/>
<path d="M19.7865 17.2588L2.12085 33.8936C2.5355 33.9448 3.00363 33.8421 3.55555 33.5587C4.7143 32.966 16.9981 26.6985 25.3346 22.418L19.7865 17.2588Z" fill="#F43249"/>
<path d="M19.7886 17.2591L25.3367 12.0498C25.3367 12.0498 4.80015 1.57846 3.55761 0.960327C3.08949 0.701281 2.56489 0.624333 2.09546 0.701281L19.7886 17.2591Z" fill="#00EE76"/>
<path d="M19.7873 17.259L2.09418 0.701172C1.37611 0.856284 0.769287 1.44901 0.769287 2.66122V31.9337C0.769287 33.0432 1.23885 33.8423 2.12163 33.9194L19.7873 17.259Z" fill="#00D3FF"/>
</g>
<defs>
<clipPath id="clip0_196_12383">
<rect width="33.3077" height="33.3077" fill="white" transform="translate(0.769287 0.672852)"/>
</clipPath>
</defs>
</svg>
