<svg width="20" height="20" viewBox="0 0 20 20" fill="none" xmlns="http://www.w3.org/2000/svg">
<path d="M16.3598 17.2C14.6398 17.2 12.9633 16.8165 11.3302 16.0496C9.69714 15.2827 8.25047 14.2693 6.9902 13.0096C5.72994 11.7499 4.7166 10.3032 3.9502 8.66959C3.1838 7.03599 2.80034 5.35945 2.7998 3.63999C2.7998 3.39999 2.8798 3.19999 3.0398 3.03999C3.1998 2.87999 3.3998 2.79999 3.6398 2.79999H6.87981C7.06647 2.79999 7.23314 2.85999 7.37981 2.97999C7.52647 3.09999 7.61314 3.25332 7.6398 3.43999L8.1598 6.23999C8.18647 6.42665 8.183 6.59679 8.1494 6.75039C8.1158 6.90399 8.03927 7.04052 7.9198 7.15999L5.9998 9.11999C6.5598 10.08 7.2598 10.98 8.0998 11.82C8.9398 12.66 9.86647 13.3867 10.8798 14L12.7598 12.12C12.8798 12 13.0366 11.9101 13.2302 11.8504C13.4238 11.7907 13.6137 11.7739 13.7998 11.8L16.5598 12.36C16.7465 12.4 16.8998 12.4901 17.0198 12.6304C17.1398 12.7707 17.1998 12.9339 17.1998 13.12V16.36C17.1998 16.6 17.1198 16.8 16.9598 16.96C16.7998 17.12 16.5998 17.2 16.3598 17.2Z" fill="#FE4C02"/>
</svg>
