<svg width="24" height="25" viewBox="0 0 24 25" fill="none" xmlns="http://www.w3.org/2000/svg">
<g clip-path="url(#clip0_196_16165)">
<path fill-rule="evenodd" clip-rule="evenodd" d="M14.5861 3.43052C14.1041 2.97858 13.3404 2.75 12 2.75C10.6596 2.75 9.89594 2.97858 9.41387 3.43052C8.94386 3.87116 8.25 4.99684 8.25 8C8.25 11.0032 8.94386 12.1288 9.41387 12.5695C9.89594 13.0214 10.6596 13.25 12 13.25C13.3404 13.25 14.1041 13.0214 14.5861 12.5695C15.0561 12.1288 15.75 11.0032 15.75 8C15.75 4.99684 15.0561 3.87116 14.5861 3.43052ZM15.408 14.75C16.92 13.85 18 11.9375 18 8C18 1.4375 15 0.5 12 0.5C9 0.5 6 1.4375 6 8C6 11.9375 7.08 13.85 8.592 14.75C9.6 15.35 10.8 15.5 12 15.5C13.2 15.5 14.4 15.35 15.408 14.75ZM7.5 17C5.01472 17 3 19.0147 3 21.5C3 23.1569 4.34315 24.5 6 24.5H18C19.6569 24.5 21 23.1569 21 21.5C21 19.0147 18.9853 17 16.5 17H7.5ZM6 22.25H18C18.4142 22.25 18.75 21.9142 18.75 21.5C18.75 20.2574 17.7426 19.25 16.5 19.25H7.5C6.25736 19.25 5.25 20.2574 5.25 21.5C5.25 21.9142 5.58579 22.25 6 22.25Z" fill="#1A1A1A"/>
</g>
<defs>
<clipPath id="clip0_196_16165">
<rect width="24" height="24" fill="white" transform="translate(0 0.5)"/>
</clipPath>
</defs>
</svg>
