<svg width="24" height="24" viewBox="0 0 24 24" fill="none" xmlns="http://www.w3.org/2000/svg">
<g clip-path="url(#clip0_99_925)">
<path fill-rule="evenodd" clip-rule="evenodd" d="M17.3204 10.2925C17.3204 14.2451 14.1409 17.4494 10.2188 17.4494C6.2967 17.4494 3.1172 14.2451 3.1172 10.2925C3.1172 6.33987 6.2967 3.13563 10.2188 3.13563C14.1409 3.13563 17.3204 6.33987 17.3204 10.2925ZM17.7744 16.045C18.9753 14.4455 19.6876 12.4529 19.6876 10.2925C19.6876 5.02232 15.4483 0.75 10.2188 0.75C4.98933 0.75 0.75 5.02232 0.75 10.2925C0.75 15.5627 4.98933 19.835 10.2188 19.835C12.4514 19.835 14.5034 19.0563 16.1223 17.7538L21.2294 22.9006C21.6917 23.3665 22.4411 23.3665 22.9033 22.9006C23.3656 22.4348 23.3656 21.6796 22.9033 21.2138L17.7744 16.045Z" fill="#666666"/>
</g>
<defs>
<clipPath id="clip0_99_925">
<rect width="24" height="24" fill="white"/>
</clipPath>
</defs>
</svg>
