<svg width="24" height="24" viewBox="0 0 24 24" fill="none" xmlns="http://www.w3.org/2000/svg">
<g clip-path="url(#clip0_546_112)">
<path d="M23.9889 2.53128C24.0117 2.39386 23.9983 2.25287 23.9499 2.12225C23.9015 1.99162 23.8199 1.87589 23.7131 1.78651C23.6062 1.69713 23.4779 1.63719 23.3408 1.61263C23.2037 1.58807 23.0625 1.59974 22.9313 1.64648L0.531298 9.64648C0.383646 9.69913 0.254717 9.794 0.160525 9.9193C0.0663328 10.0446 0.0110296 10.1948 0.0014847 10.3513C-0.00806016 10.5078 0.028574 10.6636 0.106837 10.7994C0.185099 10.9352 0.301541 11.0451 0.441698 11.1153L6.8417 14.3153C6.96782 14.3784 7.1084 14.4071 7.24917 14.3984C7.38995 14.3896 7.52592 14.3439 7.6433 14.2657L12.9553 10.7233L9.7761 14.7009C9.70691 14.7875 9.65647 14.8875 9.62797 14.9946C9.59947 15.1016 9.59352 15.2135 9.61052 15.323C9.62752 15.4325 9.66709 15.5373 9.72671 15.6307C9.78634 15.7241 9.86472 15.8041 9.9569 15.8657L19.5569 22.2657C19.6681 22.3396 19.796 22.3845 19.9289 22.3963C20.0619 22.4082 20.1957 22.3865 20.3182 22.3334C20.4407 22.2803 20.5479 22.1974 20.6301 22.0922C20.7123 21.987 20.7669 21.8629 20.7889 21.7313L23.9889 2.53128Z" fill="#FE4C02"/>
</g>
<defs>
<clipPath id="clip0_546_112">
<rect width="24" height="24" fill="white"/>
</clipPath>
</defs>
</svg>
