<svg width="51" height="51" viewBox="0 0 51 51" fill="none" xmlns="http://www.w3.org/2000/svg">
<circle cx="25.7847" cy="25.6538" r="25" fill="white"/>
<g clip-path="url(#clip0_196_16873)">
<path d="M37.9889 16.5313C38.0117 16.3939 37.9983 16.2529 37.9499 16.1222C37.9015 15.9916 37.8199 15.8759 37.7131 15.7865C37.6062 15.6971 37.4779 15.6372 37.3408 15.6126C37.2037 15.5881 37.0625 15.5997 36.9313 15.6465L14.5313 23.6465C14.3836 23.6991 14.2547 23.794 14.1605 23.9193C14.0663 24.0446 14.011 24.1948 14.0015 24.3513C13.9919 24.5078 14.0286 24.6636 14.1068 24.7994C14.1851 24.9352 14.3015 25.0451 14.4417 25.1153L20.8417 28.3153C20.9678 28.3784 21.1084 28.4071 21.2492 28.3984C21.3899 28.3896 21.5259 28.3439 21.6433 28.2657L26.9553 24.7233L23.7761 28.7009C23.7069 28.7875 23.6565 28.8875 23.628 28.9946C23.5995 29.1016 23.5935 29.2135 23.6105 29.323C23.6275 29.4325 23.6671 29.5373 23.7267 29.6307C23.7863 29.7241 23.8647 29.8041 23.9569 29.8657L33.5569 36.2657C33.6681 36.3396 33.796 36.3845 33.9289 36.3963C34.0619 36.4082 34.1957 36.3865 34.3182 36.3334C34.4407 36.2803 34.5479 36.1974 34.6301 36.0922C34.7123 35.987 34.7669 35.8629 34.7889 35.7313L37.9889 16.5313Z" fill="#FE4C02"/>
</g>
<defs>
<clipPath id="clip0_196_16873">
<rect width="24" height="24" fill="white" transform="translate(14 14)"/>
</clipPath>
</defs>
</svg>
